<svg width="20" height="20" viewBox="0 0 20 20" fill="none" xmlns="http://www.w3.org/2000/svg">
<g clip-path="url(#clip0_3303_476)">
<path fill-rule="evenodd" clip-rule="evenodd" d="M9.83333 1C10.2936 1 10.6667 1.3731 10.6667 1.83333V20.1667C10.6667 20.6269 10.2936 21 9.83333 21C9.3731 21 9 20.6269 9 20.1667V1.83333C9 1.3731 9.3731 1 9.83333 1Z" fill="#8697C9"/>
<path fill-rule="evenodd" clip-rule="evenodd" d="M5.09835 5.43168C5.80161 4.72842 6.75544 4.33333 7.75 4.33333H14C14.4602 4.33333 14.8333 4.70643 14.8333 5.16667C14.8333 5.6269 14.4602 6 14 6H7.75C7.19747 6 6.66756 6.21949 6.27686 6.61019C5.88616 7.0009 5.66667 7.5308 5.66667 8.08333C5.66667 8.63587 5.88616 9.16577 6.27686 9.55647C6.66756 9.94717 7.19747 10.1667 7.75 10.1667H11.9167C12.9112 10.1667 13.8651 10.5618 14.5683 11.265C15.2716 11.9683 15.6667 12.9221 15.6667 13.9167C15.6667 14.9112 15.2716 15.8651 14.5683 16.5683C13.8651 17.2716 12.9112 17.6667 11.9167 17.6667H4.83333C4.3731 17.6667 4 17.2936 4 16.8333C4 16.3731 4.3731 16 4.83333 16H11.9167C12.4692 16 12.9991 15.7805 13.3898 15.3898C13.7805 14.9991 14 14.4692 14 13.9167C14 13.3641 13.7805 12.8342 13.3898 12.4435C12.9991 12.0528 12.4692 11.8333 11.9167 11.8333H7.75C6.75544 11.8333 5.80161 11.4382 5.09835 10.735C4.39509 10.0317 4 9.0779 4 8.08333C4 7.08877 4.39509 6.13494 5.09835 5.43168Z" fill="#8697C9"/>
</g>
<defs>
<clipPath id="clip0_3303_476">
<rect width="20" height="20" fill="white"/>
</clipPath>
</defs>
</svg>
