<svg width="19" height="19" viewBox="0 0 19 19" fill="none" xmlns="http://www.w3.org/2000/svg">
<path d="M9.16671 14.1667C9.62694 14.1667 10 13.7936 10 13.3333C10 12.8731 9.62694 12.5 9.16671 12.5C8.70647 12.5 8.33337 12.8731 8.33337 13.3333C8.33337 13.7936 8.70647 14.1667 9.16671 14.1667Z" fill="#8697C9"/>
<path fill-rule="evenodd" clip-rule="evenodd" d="M9.46335 6.30008C9.05871 6.31784 8.84293 6.48065 8.76823 6.63936C8.57225 7.05578 8.07579 7.23448 7.65937 7.03849C7.24295 6.8425 7.06425 6.34604 7.26024 5.92962C7.69539 5.00504 8.63284 4.66826 9.39027 4.63502C10.1189 4.60304 11.0256 4.83512 11.5272 5.48925C11.9133 5.99263 12.1301 6.63072 12.0425 7.30163C11.9537 7.98193 11.5657 8.59216 10.9361 9.05536C10.0953 9.67389 10.0968 9.98948 10.097 10.0354C10.097 10.0361 10.097 10.0367 10.097 10.0373C10.097 10.4975 9.72392 10.8706 9.26368 10.8706C8.80344 10.8706 8.43035 10.4975 8.43035 10.0373C8.43035 9.24001 8.89408 8.4885 9.94843 7.71285C10.2725 7.47443 10.369 7.24631 10.3899 7.0859C10.4121 6.91611 10.3639 6.71113 10.2047 6.50346C10.1935 6.48886 10.1326 6.42807 9.98021 6.3733C9.83469 6.32101 9.65171 6.29181 9.46335 6.30008Z" fill="#8697C9"/>
<path d="M9.16667 18.3333C4.08333 18.3333 0 14.25 0 9.16667C0 4.08333 4.08333 0 9.16667 0C14.25 0 18.3333 4.08333 18.3333 9.16667C18.3333 14.25 14.25 18.3333 9.16667 18.3333ZM9.16667 1.66667C5 1.66667 1.66667 5 1.66667 9.16667C1.66667 13.3333 5 16.6667 9.16667 16.6667C13.3333 16.6667 16.6667 13.3333 16.6667 9.16667C16.6667 5 13.3333 1.66667 9.16667 1.66667Z" fill="#8697C9"/>
</svg>
