<svg width="19" height="20" viewBox="0 0 19 20" fill="none" xmlns="http://www.w3.org/2000/svg">
<path fill-rule="evenodd" clip-rule="evenodd" d="M1.00109 14.6559C1.00109 14.8134 1.06504 14.9644 1.17889 15.0757C1.29274 15.1871 1.44715 15.2496 1.60815 15.2496H15.9264L12.1055 18.9852C11.9915 19.0967 11.9275 19.2479 11.9275 19.4055C11.9275 19.5632 11.9915 19.7144 12.1055 19.8259C12.2195 19.9374 12.3741 20 12.5353 20C12.6965 20 12.8511 19.9374 12.9651 19.8259L17.8217 15.0763C17.8782 15.0211 17.923 14.9556 17.9536 14.8835C17.9842 14.8113 18 14.734 18 14.6559C18 14.5778 17.9842 14.5005 17.9536 14.4284C17.923 14.3562 17.8782 14.2907 17.8217 14.2356L12.9651 9.48596C12.8511 9.37447 12.6965 9.31184 12.5353 9.31184C12.3741 9.31184 12.2195 9.37447 12.1055 9.48596C11.9915 9.59744 11.9275 9.74864 11.9275 9.9063C11.9275 10.064 11.9915 10.2152 12.1055 10.3266L15.9264 14.0622H1.60815C1.44715 14.0622 1.29274 14.1248 1.17889 14.2361C1.06504 14.3475 1.00109 14.4985 1.00109 14.6559ZM17.9989 6.34408C17.9989 6.50154 17.935 6.65255 17.8211 6.76389C17.7073 6.87523 17.5529 6.93778 17.3918 6.93778H3.07361L6.89448 10.6734C6.95092 10.7286 6.99569 10.7941 7.02624 10.8662C7.05678 10.9383 7.07251 11.0156 7.07251 11.0937C7.07251 11.1718 7.05678 11.2491 7.02624 11.3212C6.99569 11.3933 6.95092 11.4588 6.89448 11.514C6.83803 11.5692 6.77103 11.613 6.69728 11.6429C6.62354 11.6728 6.5445 11.6882 6.46467 11.6882C6.38485 11.6882 6.30581 11.6728 6.23207 11.6429C6.15832 11.613 6.09131 11.5692 6.03487 11.514L1.17835 6.76442C1.12181 6.70927 1.07696 6.64375 1.04636 6.57163C1.01575 6.4995 1 6.42217 1 6.34408C1 6.26599 1.01575 6.18866 1.04636 6.11653C1.07696 6.0444 1.12181 5.97889 1.17835 5.92374L6.03487 1.17411C6.14886 1.06263 6.30347 1 6.46467 1C6.62588 1 6.78049 1.06263 6.89448 1.17411C7.00847 1.28559 7.07251 1.43679 7.07251 1.59445C7.07251 1.75211 7.00847 1.90331 6.89448 2.01479L3.07361 5.75038H17.3918C17.5529 5.75038 17.7073 5.81293 17.8211 5.92427C17.935 6.03561 17.9989 6.18662 17.9989 6.34408Z" fill="#8697C9" stroke="#8697C9" stroke-width="0.5"/>
</svg>
