<svg width="18" height="20" viewBox="0 0 18 20" fill="none" xmlns="http://www.w3.org/2000/svg">
<path fill-rule="evenodd" clip-rule="evenodd" d="M8.4884 1.00888C8.78933 0.77483 9.21071 0.77483 9.51164 1.00888L17.0116 6.84222C17.2146 7.0001 17.3334 7.24285 17.3334 7.50001V16.6667C17.3334 17.3297 17.07 17.9656 16.6011 18.4344C16.1323 18.9033 15.4964 19.1667 14.8334 19.1667H3.16669C2.50365 19.1667 1.86776 18.9033 1.39892 18.4344C0.930079 17.9656 0.666687 17.3297 0.666687 16.6667V7.50001C0.666687 7.24285 0.785414 7.0001 0.988403 6.84222L8.4884 1.00888ZM2.33335 7.90758V16.6667C2.33335 16.8877 2.42115 17.0996 2.57743 17.2559C2.73371 17.4122 2.94567 17.5 3.16669 17.5H14.8334C15.0544 17.5 15.2663 17.4122 15.4226 17.2559C15.5789 17.0996 15.6667 16.8877 15.6667 16.6667V7.90758L9.00002 2.72239L2.33335 7.90758Z" fill="#8697C9"/>
<path fill-rule="evenodd" clip-rule="evenodd" d="M5.66669 10C5.66669 9.53977 6.03978 9.16668 6.50002 9.16668H11.5C11.9603 9.16668 12.3334 9.53977 12.3334 10V18.3333C12.3334 18.7936 11.9603 19.1667 11.5 19.1667C11.0398 19.1667 10.6667 18.7936 10.6667 18.3333V10.8333H7.33335V18.3333C7.33335 18.7936 6.96026 19.1667 6.50002 19.1667C6.03978 19.1667 5.66669 18.7936 5.66669 18.3333V10Z" fill="#8697C9"/>
</svg>
