<svg width="20" height="20" viewBox="0 0 20 20" fill="none" xmlns="http://www.w3.org/2000/svg">
<path d="M10 12.5C9.50555 12.5 9.0222 12.3534 8.61108 12.0787C8.19995 11.804 7.87952 11.4135 7.6903 10.9567C7.50108 10.4999 7.45157 9.99723 7.54804 9.51228C7.6445 9.02732 7.8826 8.58187 8.23223 8.23223C8.58187 7.8826 9.02732 7.6445 9.51228 7.54804C9.99723 7.45157 10.4999 7.50108 10.9567 7.6903C11.4135 7.87952 11.804 8.19995 12.0787 8.61108C12.3534 9.0222 12.5 9.50555 12.5 10C12.4992 10.6628 12.2355 11.2982 11.7669 11.7669C11.2982 12.2355 10.6628 12.4992 10 12.5ZM10 8.75C9.75277 8.75 9.5111 8.82331 9.30554 8.96066C9.09998 9.09802 8.93976 9.29324 8.84515 9.52165C8.75054 9.75005 8.72579 10.0014 8.77402 10.2439C8.82225 10.4863 8.9413 10.7091 9.11612 10.8839C9.29093 11.0587 9.51366 11.1778 9.75614 11.226C9.99861 11.2742 10.2499 11.2495 10.4784 11.1549C10.7068 11.0602 10.902 10.9 11.0393 10.6945C11.1767 10.4889 11.25 10.2472 11.25 10C11.2497 9.66858 11.1179 9.35083 10.8835 9.11648C10.6492 8.88213 10.3314 8.75033 10 8.75Z" fill="#8697C9"/>
<path d="M3.125 12.5C2.63055 12.5 2.1472 12.3534 1.73608 12.0787C1.32495 11.804 1.00452 11.4135 0.815302 10.9567C0.626083 10.4999 0.576575 9.99723 0.673038 9.51228C0.769501 9.02732 1.0076 8.58187 1.35723 8.23223C1.70687 7.8826 2.15232 7.6445 2.63728 7.54804C3.12223 7.45157 3.62489 7.50108 4.08171 7.6903C4.53852 7.87952 4.92897 8.19995 5.20368 8.61108C5.47838 9.0222 5.625 9.50555 5.625 10C5.62417 10.6628 5.36052 11.2982 4.89185 11.7669C4.42319 12.2355 3.78779 12.4992 3.125 12.5ZM3.125 8.75C2.87777 8.75 2.6361 8.82331 2.43054 8.96066C2.22498 9.09802 2.06476 9.29324 1.97015 9.52165C1.87554 9.75005 1.85079 10.0014 1.89902 10.2439C1.94725 10.4863 2.0663 10.7091 2.24112 10.8839C2.41593 11.0587 2.63866 11.1778 2.88114 11.226C3.12361 11.2742 3.37495 11.2495 3.60336 11.1549C3.83176 11.0602 4.02699 10.9 4.16434 10.6945C4.30169 10.4889 4.375 10.2472 4.375 10C4.37467 9.66858 4.24287 9.35083 4.00852 9.11648C3.77417 8.88213 3.45642 8.75033 3.125 8.75Z" fill="#8697C9"/>
<path d="M6.25 19.375C5.75555 19.375 5.2722 19.2284 4.86108 18.9537C4.44995 18.679 4.12952 18.2885 3.9403 17.8317C3.75108 17.3749 3.70157 16.8722 3.79804 16.3873C3.8945 15.9023 4.1326 15.4569 4.48223 15.1072C4.83187 14.7576 5.27732 14.5195 5.76228 14.423C6.24723 14.3266 6.74989 14.3761 7.20671 14.5653C7.66353 14.7545 8.05397 15.075 8.32868 15.4861C8.60338 15.8972 8.75 16.3805 8.75 16.875C8.74917 17.5378 8.48552 18.1732 8.01685 18.6419C7.54819 19.1105 6.91279 19.3742 6.25 19.375ZM6.25 15.625C6.00277 15.625 5.7611 15.6983 5.55554 15.8357C5.34998 15.973 5.18976 16.1682 5.09515 16.3966C5.00054 16.6251 4.97579 16.8764 5.02402 17.1189C5.07225 17.3613 5.1913 17.5841 5.36612 17.7589C5.54093 17.9337 5.76366 18.0528 6.00614 18.101C6.24861 18.1492 6.49995 18.1245 6.72836 18.0298C6.95676 17.9352 7.15199 17.775 7.28934 17.5695C7.42669 17.3639 7.5 17.1222 7.5 16.875C7.49967 16.5436 7.36787 16.2258 7.13352 15.9915C6.89917 15.7571 6.58142 15.6253 6.25 15.625Z" fill="#8697C9"/>
<path d="M13.75 19.375C13.2555 19.375 12.7722 19.2284 12.3611 18.9537C11.95 18.679 11.6295 18.2885 11.4403 17.8317C11.2511 17.3749 11.2016 16.8722 11.298 16.3873C11.3945 15.9023 11.6326 15.4569 11.9822 15.1072C12.3319 14.7576 12.7773 14.5195 13.2623 14.423C13.7472 14.3266 14.2499 14.3761 14.7067 14.5653C15.1635 14.7545 15.554 15.075 15.8287 15.4861C16.1034 15.8972 16.25 16.3805 16.25 16.875C16.2492 17.5378 15.9855 18.1732 15.5169 18.6419C15.0482 19.1105 14.4128 19.3742 13.75 19.375ZM13.75 15.625C13.5028 15.625 13.2611 15.6983 13.0555 15.8357C12.85 15.973 12.6898 16.1682 12.5952 16.3966C12.5005 16.6251 12.4758 16.8764 12.524 17.1189C12.5723 17.3613 12.6913 17.5841 12.8661 17.7589C13.0409 17.9337 13.2637 18.0528 13.5061 18.101C13.7486 18.1492 13.9999 18.1245 14.2284 18.0298C14.4568 17.9352 14.652 17.775 14.7893 17.5695C14.9267 17.3639 15 17.1222 15 16.875C14.9997 16.5436 14.8679 16.2258 14.6335 15.9915C14.3992 15.7571 14.0814 15.6253 13.75 15.625Z" fill="#8697C9"/>
<path d="M16.875 12.5C16.3805 12.5 15.8972 12.3534 15.4861 12.0787C15.075 11.804 14.7545 11.4135 14.5653 10.9567C14.3761 10.4999 14.3266 9.99723 14.423 9.51228C14.5195 9.02732 14.7576 8.58187 15.1072 8.23223C15.4569 7.8826 15.9023 7.6445 16.3873 7.54804C16.8722 7.45157 17.3749 7.50108 17.8317 7.6903C18.2885 7.87952 18.679 8.19995 18.9537 8.61108C19.2284 9.0222 19.375 9.50555 19.375 10C19.3742 10.6628 19.1105 11.2982 18.6419 11.7669C18.1732 12.2355 17.5378 12.4992 16.875 12.5ZM16.875 8.75C16.6278 8.75 16.3861 8.82331 16.1805 8.96066C15.975 9.09802 15.8148 9.29324 15.7202 9.52165C15.6255 9.75005 15.6008 10.0014 15.649 10.2439C15.6973 10.4863 15.8163 10.7091 15.9911 10.8839C16.1659 11.0587 16.3887 11.1778 16.6311 11.226C16.8736 11.2742 17.1249 11.2495 17.3534 11.1549C17.5818 11.0602 17.777 10.9 17.9143 10.6945C18.0517 10.4889 18.125 10.2472 18.125 10C18.1247 9.66858 17.9929 9.35083 17.7585 9.11648C17.5242 8.88213 17.2064 8.75033 16.875 8.75Z" fill="#8697C9"/>
<path d="M13.75 5.625C13.2555 5.625 12.7722 5.47838 12.3611 5.20368C11.95 4.92897 11.6295 4.53852 11.4403 4.08171C11.2511 3.62489 11.2016 3.12223 11.298 2.63728C11.3945 2.15232 11.6326 1.70687 11.9822 1.35723C12.3319 1.0076 12.7773 0.769501 13.2623 0.673038C13.7472 0.576575 14.2499 0.626083 14.7067 0.815302C15.1635 1.00452 15.554 1.32495 15.8287 1.73608C16.1034 2.1472 16.25 2.63055 16.25 3.125C16.2492 3.78779 15.9855 4.42319 15.5169 4.89185C15.0482 5.36052 14.4128 5.62417 13.75 5.625ZM13.75 1.875C13.5028 1.875 13.2611 1.94831 13.0555 2.08566C12.85 2.22302 12.6898 2.41824 12.5952 2.64665C12.5005 2.87505 12.4758 3.12639 12.524 3.36886C12.5723 3.61134 12.6913 3.83407 12.8661 4.00888C13.0409 4.1837 13.2637 4.30275 13.5061 4.35098C13.7486 4.39921 13.9999 4.37446 14.2284 4.27985C14.4568 4.18524 14.652 4.02503 14.7893 3.81946C14.9267 3.6139 15 3.37223 15 3.125C14.9997 2.79358 14.8679 2.47583 14.6335 2.24148C14.3992 2.00713 14.0814 1.87533 13.75 1.875Z" fill="#8697C9"/>
<path d="M6.25 5.625C5.75555 5.625 5.2722 5.47838 4.86108 5.20368C4.44995 4.92897 4.12952 4.53852 3.9403 4.08171C3.75108 3.62489 3.70157 3.12223 3.79804 2.63728C3.8945 2.15232 4.1326 1.70687 4.48223 1.35723C4.83187 1.0076 5.27732 0.769501 5.76228 0.673038C6.24723 0.576575 6.74989 0.626083 7.20671 0.815302C7.66353 1.00452 8.05397 1.32495 8.32868 1.73608C8.60338 2.1472 8.75 2.63055 8.75 3.125C8.74917 3.78779 8.48552 4.42319 8.01685 4.89185C7.54819 5.36052 6.91279 5.62417 6.25 5.625ZM6.25 1.875C6.00277 1.875 5.7611 1.94831 5.55554 2.08566C5.34998 2.22302 5.18976 2.41824 5.09515 2.64665C5.00054 2.87505 4.97579 3.12639 5.02402 3.36886C5.07225 3.61134 5.1913 3.83407 5.36612 4.00888C5.54093 4.1837 5.76366 4.30275 6.00614 4.35098C6.24861 4.39921 6.49995 4.37446 6.72836 4.27985C6.95676 4.18524 7.15199 4.02503 7.28934 3.81946C7.42669 3.6139 7.5 3.37223 7.5 3.125C7.49967 2.79358 7.36787 2.47583 7.13352 2.24148C6.89917 2.00713 6.58142 1.87533 6.25 1.875Z" fill="#8697C9"/>
<path d="M7.5 5L9 8" stroke="#8697C9"/>
<path d="M12.446 5L10.8684 7.95991" stroke="#8697C9"/>
<path d="M9 12L6.92959 15.0364" stroke="#8697C9"/>
<path d="M11 12L12.5 15" stroke="#8697C9"/>
<path d="M12 10.4072L15.3335 10.0362" stroke="#8697C9"/>
<path d="M4.97723 10.519L8.33083 10.4607" stroke="#8697C9"/>
</svg>
