<svg width="19" height="19" viewBox="0 0 19 19" fill="none" xmlns="http://www.w3.org/2000/svg">
<path fill-rule="evenodd" clip-rule="evenodd" d="M9.50016 1C9.92637 1 10.3465 1.03157 10.7557 1.09229L11.3726 2.96106C11.9129 3.11528 12.4266 3.33506 12.9026 3.61192L14.6754 2.75707C15.3032 3.23914 15.8618 3.80742 16.3329 4.4437L15.4465 6.20077C15.7149 6.68162 15.9261 7.19891 16.0706 7.7429L17.9285 8.39012C18.0308 9.17576 18.0239 9.9718 17.9078 10.7555L16.0391 11.3724C15.8859 11.9072 15.6673 12.4211 15.3882 12.9024L16.2431 14.6752C15.7603 15.3032 15.1927 15.861 14.5564 16.3327L12.7994 15.4463C12.3185 15.7147 11.8012 15.9259 11.2572 16.0704L10.61 17.9283C9.82437 18.0307 9.02833 18.0237 8.24459 17.9077L7.62774 16.0389C7.0929 15.8857 6.57901 15.6671 6.09774 15.388L4.32489 16.2429C3.69693 15.7602 3.1391 15.1925 2.6674 14.5562L3.55382 12.7992C3.28305 12.3128 3.07341 11.7948 2.92968 11.257L1.07183 10.6086C0.969579 9.82336 0.976526 9.02774 1.09247 8.2444L2.96125 7.62755C3.11547 7.08719 3.33525 6.57355 3.61211 6.09755L2.75725 4.3247C3.23997 3.69675 3.80762 3.13891 4.44389 2.66721L6.20095 3.55363C6.68181 3.28528 7.19909 3.07399 7.74309 2.92949L8.39152 1.07164C8.75459 1.02429 9.12494 1 9.50016 1Z" stroke="#8697C9" stroke-width="1.5" stroke-linecap="round" stroke-linejoin="round"/>
<path d="M9.50021 13.1428C11.5121 13.1428 13.143 11.5119 13.143 9.49998C13.143 7.48809 11.5121 5.85713 9.50021 5.85713C7.48832 5.85713 5.85736 7.48809 5.85736 9.49998C5.85736 11.5119 7.48832 13.1428 9.50021 13.1428Z" stroke="#8697C9" stroke-linecap="round" stroke-linejoin="round"/>
</svg>
