<svg width="20" height="12" viewBox="0 0 20 12" fill="none" xmlns="http://www.w3.org/2000/svg">
<path fill-rule="evenodd" clip-rule="evenodd" d="M19.7559 0.244078C20.0814 0.569515 20.0814 1.09715 19.7559 1.42259L11.8393 9.33926C11.5138 9.66469 10.9862 9.66469 10.6607 9.33926L7.08333 5.76185L1.42259 11.4226C1.09715 11.748 0.569515 11.748 0.244078 11.4226C-0.0813592 11.0972 -0.0813592 10.5695 0.244078 10.2441L6.49408 3.99408C6.81951 3.66864 7.34715 3.66864 7.67259 3.99408L11.25 7.57149L18.5774 0.244078C18.9028 -0.0813593 19.4305 -0.0813593 19.7559 0.244078Z" fill="#8697C9"/>
<path fill-rule="evenodd" clip-rule="evenodd" d="M13.3333 0.833333C13.3333 0.373096 13.7064 1.24176e-08 14.1667 1.24176e-08H19.1667C19.6269 1.24176e-08 20 0.373096 20 0.833333V5.83333C20 6.29357 19.6269 6.66667 19.1667 6.66667C18.7064 6.66667 18.3333 6.29357 18.3333 5.83333V1.66667H14.1667C13.7064 1.66667 13.3333 1.29357 13.3333 0.833333Z" fill="#8697C9"/>
</svg>
