<svg width="17" height="18" viewBox="0 0 17 18" fill="none" xmlns="http://www.w3.org/2000/svg">
<path fill-rule="evenodd" clip-rule="evenodd" d="M2.97106 3.75C2.53242 3.75 2.17683 4.08579 2.17683 4.5V15C2.17683 15.4142 2.53242 15.75 2.97106 15.75H14.0902C14.5289 15.75 14.8845 15.4142 14.8845 15V4.5C14.8845 4.08579 14.5289 3.75 14.0902 3.75H2.97106ZM0.588379 4.5C0.588379 3.25736 1.65514 2.25 2.97106 2.25H14.0902C15.4062 2.25 16.4729 3.25736 16.4729 4.5V15C16.4729 16.2426 15.4062 17.25 14.0902 17.25H2.97106C1.65514 17.25 0.588379 16.2426 0.588379 15V4.5Z" fill="#8697C9"/>
<path fill-rule="evenodd" clip-rule="evenodd" d="M11.7076 0.75C12.1462 0.75 12.5018 1.08579 12.5018 1.5V4.5C12.5018 4.91421 12.1462 5.25 11.7076 5.25C11.2689 5.25 10.9133 4.91421 10.9133 4.5V1.5C10.9133 1.08579 11.2689 0.75 11.7076 0.75Z" fill="#8697C9"/>
<path fill-rule="evenodd" clip-rule="evenodd" d="M5.35374 0.75C5.79238 0.75 6.14797 1.08579 6.14797 1.5V4.5C6.14797 4.91421 5.79238 5.25 5.35374 5.25C4.9151 5.25 4.55952 4.91421 4.55952 4.5V1.5C4.55952 1.08579 4.9151 0.75 5.35374 0.75Z" fill="#8697C9"/>
<path fill-rule="evenodd" clip-rule="evenodd" d="M0.588379 7.5C0.588379 7.08579 0.943967 6.75 1.38261 6.75H15.6787C16.1173 6.75 16.4729 7.08579 16.4729 7.5C16.4729 7.91421 16.1173 8.25 15.6787 8.25H1.38261C0.943967 8.25 0.588379 7.91421 0.588379 7.5Z" fill="#8697C9"/>
</svg>
