<svg width="20" height="17" viewBox="0 0 20 17" fill="none" xmlns="http://www.w3.org/2000/svg">
<path d="M3.26005 8.99968C2.93165 8.70434 2.50373 8.5441 2.06212 8.5511C1.62052 8.5581 1.19789 8.73181 0.87901 9.0374C0.560135 9.34299 0.368602 9.75785 0.342828 10.1988C0.317055 10.6397 0.458948 11.074 0.740047 11.4147L4.62505 15.4922C4.7877 15.6628 4.98315 15.7988 5.19967 15.892C5.41619 15.9853 5.64931 16.0338 5.88505 16.0347C6.11953 16.036 6.3519 15.9903 6.56834 15.9001C6.78479 15.8099 6.98091 15.6771 7.14505 15.5097L19.01 3.25968C19.1709 3.09421 19.2976 2.89868 19.3829 2.68425C19.4682 2.46982 19.5105 2.24068 19.5072 2.00993C19.504 1.77918 19.4553 1.55132 19.364 1.33938C19.2727 1.12743 19.1405 0.935548 18.975 0.774679C18.8096 0.61381 18.614 0.487106 18.3996 0.401803C18.1852 0.3165 17.9561 0.274268 17.7253 0.277518C17.4945 0.280768 17.2667 0.329437 17.0547 0.420745C16.8428 0.512053 16.6509 0.644213 16.49 0.809679L5.90255 11.7647L3.26005 8.99968Z" fill="white"/>
</svg>
