<svg width="11" height="12" viewBox="0 0 11 12" fill="none" xmlns="http://www.w3.org/2000/svg">
<path d="M5.20283 11.7C5.86283 11.7 6.40283 11.16 6.40283 10.5H4.00283C4.00283 11.16 4.54283 11.7 5.20283 11.7ZM8.80283 8.1V5.1C8.80283 3.258 7.82483 1.716 6.10283 1.308V0.9C6.10283 0.402 5.70083 0 5.20283 0C4.70483 0 4.30283 0.402 4.30283 0.9V1.308C2.58683 1.716 1.60283 3.252 1.60283 5.1V8.1L0.402832 9.3V9.9H10.0028V9.3L8.80283 8.1ZM7.60283 8.7H2.80283V5.1C2.80283 3.612 3.70883 2.4 5.20283 2.4C6.69683 2.4 7.60283 3.612 7.60283 5.1V8.7Z" fill="#219653"/>
</svg>
