<svg width="33" height="32" viewBox="0 0 33 32" fill="none" xmlns="http://www.w3.org/2000/svg">
<path d="M20.081 15.3504L9.01196 13.4004V27.8094C9.01209 27.9659 9.04306 28.1209 9.10308 28.2655C9.16311 28.41 9.25102 28.5414 9.3618 28.652C9.47258 28.7626 9.60406 28.8503 9.74873 28.91C9.8934 28.9698 10.0484 29.0005 10.205 29.0004H29.305C29.4617 29.0008 29.6169 28.9703 29.7618 28.9106C29.9067 28.8509 30.0384 28.7633 30.1494 28.6527C30.2604 28.5421 30.3485 28.4106 30.4087 28.2659C30.4688 28.1212 30.4998 27.9661 30.5 27.8094V22.5004L20.081 15.3504Z" fill="#185C37"/>
<path d="M20.081 3H10.205C10.0484 2.99987 9.8934 3.03057 9.74873 3.09035C9.60406 3.15014 9.47258 3.23783 9.3618 3.34842C9.25102 3.45902 9.16311 3.59035 9.10308 3.73492C9.04306 3.87949 9.01209 4.03446 9.01196 4.191V9.5L20.081 16L25.942 17.95L30.5 16V9.5L20.081 3Z" fill="#21A366"/>
<path d="M9.01196 9.5H20.081V16H9.01196V9.5Z" fill="#107C41"/>
<path opacity="0.1" d="M16.934 8.19922H9.01196V24.4492H16.934C17.2496 24.4476 17.552 24.3218 17.7755 24.0988C17.9989 23.8759 18.1256 23.5739 18.128 23.2582V9.39022C18.1256 9.07456 17.9989 8.77254 17.7755 8.54961C17.552 8.32668 17.2496 8.20079 16.934 8.19922Z" fill="black"/>
<path opacity="0.2" d="M16.283 8.84961H9.01196V25.0996H16.283C16.5986 25.098 16.901 24.9721 17.1245 24.7492C17.3479 24.5263 17.4746 24.2243 17.477 23.9086V10.0406C17.4746 9.72495 17.3479 9.42293 17.1245 9.2C16.901 8.97707 16.5986 8.85118 16.283 8.84961Z" fill="black"/>
<path opacity="0.2" d="M16.283 8.84961H9.01196V23.7996H16.283C16.5986 23.798 16.901 23.6722 17.1245 23.4492C17.3479 23.2263 17.4746 22.9243 17.477 22.6086V10.0406C17.4746 9.72495 17.3479 9.42293 17.1245 9.2C16.901 8.97707 16.5986 8.85118 16.283 8.84961Z" fill="black"/>
<path opacity="0.2" d="M15.632 8.84961H9.01196V23.7996H15.632C15.9476 23.798 16.25 23.6722 16.4735 23.4492C16.6969 23.2263 16.8236 22.9243 16.826 22.6086V10.0406C16.8236 9.72495 16.6969 9.42293 16.4735 9.2C16.25 8.97707 15.9476 8.85118 15.632 8.84961Z" fill="black"/>
<path d="M3.694 8.84961H15.632C15.9482 8.84935 16.2516 8.97464 16.4755 9.19797C16.6994 9.4213 16.8255 9.72438 16.826 10.0406V21.9586C16.8255 22.2748 16.6994 22.5779 16.4755 22.8013C16.2516 23.0246 15.9482 23.1499 15.632 23.1496H3.694C3.53738 23.1499 3.38224 23.1193 3.23746 23.0595C3.09267 22.9998 2.96108 22.9122 2.85019 22.8015C2.7393 22.6909 2.6513 22.5596 2.59121 22.4149C2.53113 22.2703 2.50013 22.1152 2.5 21.9586V10.0406C2.50013 9.88399 2.53113 9.72893 2.59121 9.5843C2.6513 9.43966 2.7393 9.30829 2.85019 9.19768C2.96108 9.08707 3.09267 8.9994 3.23746 8.93968C3.38224 8.87995 3.53738 8.84935 3.694 8.84961Z" fill="url(#paint0_linear_1957_13785)"/>
<path d="M6.19995 19.873L8.71095 15.989L6.41095 12.127H8.25795L9.51295 14.6C9.62895 14.834 9.71295 15.008 9.75095 15.124H9.76795C9.84995 14.936 9.93695 14.755 10.028 14.578L11.37 12.131H13.07L10.711 15.971L13.13 19.876H11.321L9.87095 17.165C9.80363 17.0484 9.74642 16.9263 9.69995 16.8H9.67595C9.63367 16.923 9.5773 17.0408 9.50795 17.151L8.01495 19.873H6.19995Z" fill="white"/>
<path d="M29.3061 3H20.0811V9.5H30.5001V4.191C30.4999 4.03438 30.4689 3.87932 30.4088 3.73469C30.3488 3.59005 30.2608 3.45868 30.1499 3.34807C30.039 3.23746 29.9074 3.14979 29.7626 3.09007C29.6178 3.03034 29.4627 2.99974 29.3061 3Z" fill="#33C481"/>
<path d="M20.0811 16H30.5001V22.5H20.0811V16Z" fill="#107C41"/>
<defs>
<linearGradient id="paint0_linear_1957_13785" x1="4.994" y1="7.91361" x2="14.332" y2="24.0856" gradientUnits="userSpaceOnUse">
<stop stop-color="#18884F"/>
<stop offset="0.5" stop-color="#117E43"/>
<stop offset="1" stop-color="#0B6631"/>
</linearGradient>
</defs>
</svg>
