<svg width="25" height="24" viewBox="0 0 25 24" fill="none" xmlns="http://www.w3.org/2000/svg">
<path fill-rule="evenodd" clip-rule="evenodd" d="M6.74246 8.89961C7.12114 10.0606 8.21264 10.8996 9.5001 10.8996C10.7876 10.8996 11.8791 10.0606 12.2577 8.89961C15.0052 8.89961 17.7526 8.89961 20.5001 8.89961C20.9972 8.89961 21.4001 8.49667 21.4001 7.99961C21.4001 7.50255 20.9972 7.09961 20.5001 7.09961C17.7526 7.09961 15.0052 7.09961 12.2577 7.09961C12.248 7.06925 12.261 7.10971 12.2577 7.09961C11.8791 5.93857 10.7876 5.09961 9.5001 5.09961C8.21264 5.09961 7.12114 5.93857 6.74246 7.09961C5.99501 7.09961 5.24755 7.09961 4.5001 7.09961C4.00304 7.09961 3.6001 7.50255 3.6001 7.99961C3.6001 8.49667 4.00304 8.89961 4.5001 8.89961C5.24755 8.89961 5.99501 8.89961 6.74246 8.89961ZM9.5001 6.89961C8.89258 6.89961 8.4001 7.3921 8.4001 7.99961C8.4001 8.60712 8.89258 9.09961 9.5001 9.09961C10.1076 9.09961 10.6001 8.60712 10.6001 7.99961C10.6001 7.3921 10.1076 6.89961 9.5001 6.89961Z" fill="#8697C9"/>
<path fill-rule="evenodd" clip-rule="evenodd" d="M3.6001 15.9996C3.6001 15.5026 4.00304 15.0996 4.5001 15.0996C7.24755 15.0996 9.99501 15.0996 12.7425 15.0996C13.1211 13.9386 14.2126 13.0996 15.5001 13.0996C16.7876 13.0996 17.8791 13.9386 18.2577 15.0996C18.2577 15.0996 19.9787 15.0996 20.5001 15.0996C20.9972 15.0996 21.4001 15.5026 21.4001 15.9996C21.4001 16.4967 20.9972 16.8996 20.5001 16.8996C20.2779 16.8996 18.2577 16.8996 18.2577 16.8996C17.8791 18.0607 16.7876 18.8996 15.5001 18.8996C14.2126 18.8996 13.1211 18.0607 12.7425 16.8996C9.99501 16.8996 7.24755 16.8996 4.5001 16.8996C4.00304 16.8996 3.6001 16.4967 3.6001 15.9996ZM14.4001 15.9996C14.4001 15.3921 14.8926 14.8996 15.5001 14.8996C16.1076 14.8996 16.6001 15.3921 16.6001 15.9996C16.6001 16.6071 16.1076 17.0996 15.5001 17.0996C14.8926 17.0996 14.4001 16.6071 14.4001 15.9996Z" fill="#8697C9"/>
</svg>
