<svg width="20" height="20" viewBox="0 0 20 20" fill="none" xmlns="http://www.w3.org/2000/svg">
<path d="M20 4.77567C19.2641 5.07682 18.4733 5.28036 17.6433 5.37193C18.4905 4.90328 19.1411 4.16116 19.4474 3.27693C18.642 3.71803 17.7608 4.02881 16.8419 4.19584C16.0934 3.45992 15.027 3 13.8468 3C11.5807 3 9.74344 4.69549 9.74344 6.78666C9.74344 7.0835 9.77977 7.37247 9.84969 7.64969C6.43953 7.49172 3.41609 5.9842 1.39227 3.69316C1.03914 4.25244 0.836797 4.90299 0.836797 5.59688C0.836797 6.91067 1.56125 8.06967 2.66219 8.74878C2.01059 8.72994 1.37332 8.56753 0.803594 8.27508C0.803359 8.29095 0.803359 8.30681 0.803359 8.32274C0.803359 10.1575 2.21773 11.688 4.09477 12.0359C3.49054 12.1875 2.85674 12.2097 2.2418 12.1008C2.76391 13.6052 4.2793 14.6999 6.07477 14.7306C4.67047 15.7462 2.90117 16.3516 0.978828 16.3516C0.647578 16.3516 0.321016 16.3336 0 16.2987C1.81586 17.3731 3.97266 18 6.28984 18C13.8373 18 17.9644 12.2298 17.9644 7.22582C17.9644 7.06158 17.9605 6.89827 17.9525 6.7359C18.7558 6.19998 19.4492 5.53618 20 4.77567Z" fill="#8697C9"/>
</svg>
