<svg width="22" height="20" viewBox="0 0 22 20" fill="none" xmlns="http://www.w3.org/2000/svg">
<path d="M11 12C10.7348 12 10.4804 11.8946 10.2929 11.7071C10.1054 11.5196 10 11.2652 10 11V8C10 7.73478 10.1054 7.48043 10.2929 7.29289C10.4804 7.10536 10.7348 7 11 7C11.2652 7 11.5196 7.10536 11.7071 7.29289C11.8946 7.48043 12 7.73478 12 8V11C12 11.2652 11.8946 11.5196 11.7071 11.7071C11.5196 11.8946 11.2652 12 11 12ZM9.5 14.5C9.5 14.1022 9.65804 13.7206 9.93934 13.4393C10.2206 13.158 10.6022 13 11 13C11.3978 13 11.7794 13.158 12.0607 13.4393C12.342 13.7206 12.5 14.1022 12.5 14.5C12.5 14.8978 12.342 15.2794 12.0607 15.5607C11.7794 15.842 11.3978 16 11 16C10.6022 16 10.2206 15.842 9.93934 15.5607C9.65804 15.2794 9.5 14.8978 9.5 14.5Z" fill="#7581A6"/>
<path d="M9.22977 1.21523C9.97977 -0.209766 12.0198 -0.209766 12.7698 1.21523L21.1128 17.0672C21.8138 18.3992 20.8498 19.9992 19.3428 19.9992H2.65677C1.15177 19.9992 0.186771 18.3992 0.886771 17.0682L9.22977 1.21523ZM19.3438 17.9992L10.9998 2.14623L2.65577 17.9992H19.3438Z" fill="#7581A6"/>
</svg>
