<svg width="20" height="20" viewBox="0 0 20 20" fill="none" xmlns="http://www.w3.org/2000/svg">
<path d="M18.6028 6.00539C18.4995 5.61778 18.2981 5.26441 18.0186 4.98047C17.7391 4.69652 17.3913 4.49191 17.0097 4.38701C15.6129 4 9.99102 4 9.99102 4C9.99102 4 4.36888 4.01171 2.97203 4.39872C2.59047 4.50363 2.24263 4.70825 1.96313 4.99221C1.68363 5.27617 1.48224 5.62955 1.379 6.01718C0.956489 8.5385 0.792588 12.3804 1.39061 14.8009C1.49385 15.1885 1.69525 15.5419 1.97475 15.8258C2.25424 16.1098 2.60208 16.3144 2.98363 16.4193C4.38048 16.8063 10.0025 16.8063 10.0025 16.8063C10.0025 16.8063 15.6244 16.8063 17.0212 16.4193C17.4028 16.3144 17.7506 16.1098 18.0301 15.8258C18.3096 15.5419 18.511 15.1885 18.6143 14.8009C19.0599 12.276 19.1973 8.4365 18.6028 6.00546V6.00539Z" fill="#717C9E"/>
<path d="M8.20166 13.1471L12.8655 10.4029L8.20173 7.65869L8.20166 13.1471Z" fill="white"/>
</svg>
