<svg width="18" height="13" viewBox="0 0 18 13" fill="none" xmlns="http://www.w3.org/2000/svg">
<path d="M17.6028 2.00539C17.4995 1.61778 17.2981 1.26441 17.0186 0.980465C16.7391 0.69652 16.3913 0.491909 16.0097 0.387006C14.6129 0 8.99102 0 8.99102 0C8.99102 0 3.36888 0.0117145 1.97203 0.398721C1.59047 0.50363 1.24263 0.708252 0.963131 0.99221C0.683634 1.27617 0.48224 1.62955 0.379004 2.01718C-0.0435107 4.5385 -0.207412 8.38043 0.390606 10.8009C0.493853 11.1885 0.695251 11.5419 0.974747 11.8258C1.25424 12.1098 1.60208 12.3144 1.98363 12.4193C3.38048 12.8063 9.00249 12.8063 9.00249 12.8063C9.00249 12.8063 14.6244 12.8063 16.0212 12.4193C16.4028 12.3144 16.7506 12.1098 17.0301 11.8258C17.3096 11.5419 17.511 11.1885 17.6143 10.8009C18.0599 8.276 18.1973 4.4365 17.6028 2.00546V2.00539Z" fill="#8697C9"/>
<path d="M7.20166 9.14756L11.8655 6.40337L7.20173 3.65918L7.20166 9.14756Z" fill="white"/>
</svg>
