<svg width="15" height="21" viewBox="0 0 15 21" fill="none" xmlns="http://www.w3.org/2000/svg">
<path fill-rule="evenodd" clip-rule="evenodd" d="M13.7625 10.7476C13.3094 10.1472 12.6297 9.73533 11.7235 9.51241C12.87 8.90101 13.3675 7.86577 13.2165 6.40652C13.1656 5.87736 13.0208 5.41892 12.7818 5.03053C12.5425 4.64206 12.2215 4.32997 11.8174 4.09415C11.4136 3.85804 10.9751 3.67852 10.5028 3.55504C10.0304 3.43157 9.48854 3.34225 8.8775 3.28721L8.85233 0.25627L7.06718 0.259293L7.09165 3.20602C6.78252 3.20655 6.31117 3.21535 5.67762 3.23247L5.65295 0.261688L3.86755 0.264711L3.89273 3.29565C3.63767 3.30413 3.26292 3.30885 2.76832 3.30969L0.310568 3.30172L0.32695 5.27427L1.61368 5.27209C2.20107 5.27109 2.54725 5.5432 2.65224 6.08819L2.68091 9.54015C2.7583 9.54002 2.82009 9.54404 2.86657 9.55197L2.68101 9.55228L2.72116 14.3871C2.6628 14.7961 2.4404 15.0011 2.05392 15.0017L0.767274 15.0039L0.42612 17.2056L2.74474 17.2017C2.89161 17.2014 3.10403 17.2031 3.3824 17.2062C3.66062 17.2098 3.86922 17.2115 4.00838 17.2112L4.03385 20.2782L5.81953 20.2752L5.79435 17.2443C6.11894 17.2519 6.59039 17.2551 7.20868 17.254L7.23375 20.2728L9.01894 20.2698L8.99347 17.2028C9.62709 17.1697 10.1888 17.1089 10.6786 17.0196C11.1687 16.9303 11.6372 16.7914 12.0838 16.6021C12.5303 16.413 12.9031 16.1777 13.2022 15.8965C13.5014 15.6156 13.7474 15.2582 13.9413 14.8248C14.1344 14.3914 14.256 13.89 14.3052 13.3205C14.3969 12.2061 14.2158 11.3484 13.7625 10.7476ZM5.74185 5.3989L5.74198 5.3989L5.77272 9.09475C5.81156 9.09468 5.94505 9.09656 6.17377 9.10014C6.40246 9.10372 6.58254 9.10341 6.71428 9.09923C6.84589 9.09504 7.03958 9.08653 7.29525 9.07413C7.55086 9.06172 7.7637 9.03922 7.93391 9.0068C8.104 8.97447 8.30314 8.92998 8.53111 8.87339C8.75913 8.81688 8.94658 8.74226 9.09289 8.6498C9.23935 8.55733 9.38206 8.44864 9.52037 8.32397C9.65863 8.19934 9.76221 8.04463 9.8302 7.85995C9.89831 7.67514 9.93141 7.47036 9.92954 7.24562C9.92734 6.98081 9.87694 6.74615 9.77828 6.54168C9.6799 6.33717 9.56036 6.16875 9.41968 6.03658C9.27928 5.90441 9.09252 5.79231 8.85911 5.70049C8.62611 5.60858 8.4123 5.54269 8.21833 5.50296C8.02435 5.46323 7.78587 5.43146 7.50288 5.40786C7.21977 5.38426 6.99499 5.37461 6.82841 5.37885C6.66187 5.38318 6.45279 5.3875 6.20089 5.39206C5.9493 5.39653 5.79634 5.39881 5.74198 5.3989L5.74198 5.39886L5.74185 5.39886L5.74185 5.3989ZM10.3937 14.0563C10.5088 13.9196 10.6023 13.7588 10.6746 13.5739C10.7468 13.3891 10.7819 13.1846 10.78 12.9597C10.7776 12.6706 10.7174 12.4138 10.599 12.1893C10.4809 11.9647 10.336 11.7806 10.1643 11.6362C9.99246 11.492 9.76846 11.37 9.49252 11.2702C9.21628 11.1702 8.96198 11.0965 8.72911 11.0487C8.49595 11.0009 8.20881 10.9654 7.86773 10.9421C7.52631 10.9184 7.25868 10.907 7.0649 10.9073C6.87108 10.9077 6.62125 10.9118 6.31501 10.9204C6.00881 10.9291 5.82471 10.9334 5.76277 10.9335L5.79663 15.0031C5.8587 15.003 6.00199 15.0048 6.22696 15.0082C6.4518 15.0117 6.6379 15.0136 6.78521 15.0133C6.93244 15.0131 7.13794 15.0066 7.40131 14.9944C7.66487 14.9818 7.89139 14.9654 8.08105 14.945C8.27099 14.9245 8.49149 14.8902 8.74336 14.8416C8.99465 14.7928 9.20938 14.7366 9.38723 14.6718C9.56484 14.6073 9.74843 14.5228 9.93735 14.418C10.1263 14.3135 10.2785 14.1927 10.3937 14.0563Z" fill="#F7931A"/>
</svg>
