<svg width="24" height="25" viewBox="0 0 24 25" fill="none" xmlns="http://www.w3.org/2000/svg">
<path fill-rule="evenodd" clip-rule="evenodd" d="M17.0279 19.6728H14.4731V15.2749C14.4731 14.5705 13.9031 13.9981 13.1987 13.9981H13.1975H9.52552C8.11553 13.9981 6.97194 12.8545 6.97194 11.4445V5.76857H9.52552V10.1677C9.52552 10.8721 10.0967 11.4445 10.8011 11.4445H14.4731C15.8831 11.4457 17.0255 12.5881 17.0267 13.9981L17.0279 19.6728ZM9.61432 19.6728H7.05954V15.3841C8.46953 15.3841 9.61312 16.5265 9.61312 17.9377L9.61432 19.6728ZM14.3855 5.76737H16.9391V10.0585C15.5279 10.0585 14.3855 8.91494 14.3855 7.50496V5.76737ZM11.9999 0.720215C5.37235 0.720215 0 6.09377 0 12.7201C0 19.3465 5.37235 24.72 11.9999 24.72C18.6274 24.72 23.9998 19.3477 23.9998 12.7201C23.9998 6.09257 18.6274 0.720215 11.9999 0.720215Z" fill="#005FFA"/>
</svg>
