<svg width="23" height="25" viewBox="0 0 23 25" fill="none" xmlns="http://www.w3.org/2000/svg">
<path fill-rule="evenodd" clip-rule="evenodd" d="M11.0974 0.405762H12.824C14.3759 0.507651 15.9032 0.998904 17.209 1.87709C18.8582 2.95421 20.1113 4.53956 21.2061 6.18434C20.5649 5.75253 19.987 5.22974 19.3341 4.8149C17.1434 3.32416 14.5189 2.32832 11.8651 2.6073C9.43759 2.84504 7.20229 4.08955 5.38075 5.71978C3.8757 7.06375 2.84654 9.0142 2.77504 11.0908C2.66368 13.8273 3.76903 16.4267 5.0924 18.7325C4.36214 18.536 3.65182 18.234 3.03409 17.7791C1.7916 16.8876 0.964054 15.4951 0.531527 14.0153C-0.1073 11.8113 -0.262025 9.36718 0.58193 7.19717C1.30281 5.25157 2.73753 3.70261 4.29299 2.43021C6.25401 0.954024 8.73547 0.563448 11.0974 0.405762Z" fill="#6CB0FD"/>
<path fill-rule="evenodd" clip-rule="evenodd" d="M5.68066 9.80605C5.7592 8.55912 6.73912 7.43833 7.96755 7.37405C10.66 7.36555 13.3536 7.37041 16.0461 7.37162C16.0484 8.46208 15.2982 9.49432 14.2726 9.76481C13.5376 9.92977 12.7793 9.87883 12.0338 9.85457C12.015 11.7165 12.049 13.5784 12.0162 15.4391C11.9658 16.9516 10.6577 18.2216 9.20535 18.2386C9.38 15.4524 9.51714 12.6638 9.71641 9.88004C8.51143 9.87155 7.30645 9.8764 6.10147 9.88004C5.95729 9.87761 5.81781 9.85214 5.68066 9.80605Z" fill="#6CB0FD"/>
<path fill-rule="evenodd" clip-rule="evenodd" d="M17.3481 5.68311C18.9412 6.6286 20.4287 7.86365 21.3388 9.52654C22.4264 11.4258 22.6722 13.7375 22.2907 15.8779C21.8038 18.3917 20.1226 20.4895 18.1145 21.948C16.3255 23.3378 14.0855 24.0434 11.849 24.1108H11.2299C10.2815 24.0659 9.33421 23.9607 8.40552 23.7515C7.23451 23.4986 6.04726 23.1771 5.04436 22.481C3.35973 21.3334 2.19799 19.5677 1.32031 17.7382C2.51799 18.751 3.77944 19.6989 5.16958 20.421C7.11161 21.4563 9.35508 22.026 11.5429 21.6643C13.9128 21.2908 16.0194 19.9104 17.6959 18.2121C19.0316 16.8222 20.0148 14.9856 20.0426 13.0048C20.1388 10.3078 18.8356 7.8211 17.3481 5.68311Z" fill="#2B2E7C"/>
</svg>
