<svg width="24" height="25" viewBox="0 0 24 25" fill="none" xmlns="http://www.w3.org/2000/svg">
<g clip-path="url(#clip0_2324_33052)">
<mask id="mask0_2324_33052" style="mask-type:alpha" maskUnits="userSpaceOnUse" x="0" y="0" width="24" height="25">
<path d="M3.05176e-05 0.405762H24V24.1107H3.05176e-05V0.405762Z" fill="white"/>
</mask>
<g mask="url(#mask0_2324_33052)">
<path fill-rule="evenodd" clip-rule="evenodd" d="M12 0.405762C18.6276 0.405762 24 5.71216 24 12.2582C24 18.8038 18.6276 24.1107 12 24.1107C5.37249 24.1107 3.05176e-05 18.8038 3.05176e-05 12.2582C3.05176e-05 5.71216 5.37249 0.405762 12 0.405762Z" fill="#2775CA"/>
</g>
<path fill-rule="evenodd" clip-rule="evenodd" d="M9.75067 20.4989C9.75067 20.7777 9.52962 20.9361 9.25662 20.8519C5.6284 19.7087 2.9978 16.3483 2.9978 12.3834C2.9978 8.41864 5.6284 5.0582 9.25662 3.91498C9.52962 3.83133 9.75067 3.98919 9.75067 4.26799V4.95624C9.75067 5.14184 9.60503 5.3603 9.42599 5.42078C6.5554 6.46191 4.49903 9.18569 4.49903 12.3787C4.49903 15.5717 6.5554 18.2961 9.42599 19.3366C9.60503 19.4018 9.75067 19.6154 9.75067 19.8017V20.4989Z" fill="white"/>
<path fill-rule="evenodd" clip-rule="evenodd" d="M12.7481 17.9378C12.7481 18.1425 12.5787 18.3098 12.3717 18.3098H11.6234C11.4164 18.3098 11.247 18.1425 11.247 17.9378V16.7667C9.60926 16.5483 8.80949 15.6418 8.59294 14.4102C8.55517 14.2007 8.72453 14.0103 8.94108 14.0103H9.79758C9.97635 14.0103 10.127 14.136 10.1647 14.3123C10.3248 15.0467 10.7529 15.6092 12.0657 15.6092C13.0351 15.6092 13.7224 15.0746 13.7224 14.2755C13.7224 13.4757 13.3175 13.1738 11.8964 12.9412C9.79758 12.6624 8.80471 12.0347 8.80471 10.408C8.80471 9.15308 9.76485 8.17714 11.2518 7.96783V6.81976C11.2518 6.61517 11.4213 6.44775 11.6281 6.44775H12.3765C12.5835 6.44775 12.7529 6.61517 12.7529 6.81976V8.00043C13.9623 8.21458 14.7293 8.89273 14.9789 10.0175C15.0258 10.2317 14.8564 10.4311 14.6354 10.4311H13.8446C13.6752 10.4311 13.5341 10.3195 13.4824 10.1569C13.2706 9.44144 12.7529 9.13476 11.8539 9.13476C10.8611 9.13476 10.3481 9.60873 10.3481 10.2733C10.3481 10.9751 10.64 11.3281 12.1649 11.547C14.2257 11.8258 15.2895 12.4067 15.2895 14.1408C15.2895 15.456 14.3011 16.5205 12.7529 16.7667V17.9378H12.7481Z" fill="white"/>
<path fill-rule="evenodd" clip-rule="evenodd" d="M14.7436 20.8518C14.4708 20.936 14.2495 20.7776 14.2495 20.4988V19.8111C14.2495 19.6065 14.3766 19.416 14.5742 19.346C17.4448 18.3049 19.5012 15.5811 19.5012 12.3881C19.5012 9.19503 17.4448 6.47125 14.5742 5.43012C14.3954 5.36493 14.2495 5.15132 14.2495 4.96505V4.27734C14.2495 3.99853 14.4708 3.83597 14.7436 3.92378C18.3718 5.06768 21.0024 8.42799 21.0024 12.3928C20.9979 16.3481 18.3718 19.7039 14.7436 20.8518Z" fill="white"/>
</g>
<defs>
<clipPath id="clip0_2324_33052">
<rect width="24" height="23.7049" fill="white" transform="translate(0 0.405762)"/>
</clipPath>
</defs>
</svg>
