<svg width="25" height="17" viewBox="0 0 25 17" fill="none" xmlns="http://www.w3.org/2000/svg">
<path fill-rule="evenodd" clip-rule="evenodd" d="M24.5689 17H0.431054C0.193017 17 0 16.7997 0 16.5526V0.447388C0 0.200331 0.193017 0 0.431054 0H24.5689C24.807 0 25 0.200331 25 0.447388V16.5526C25 16.7997 24.8069 17 24.5689 17Z" fill="#FF4B55"/>
<path fill-rule="evenodd" clip-rule="evenodd" d="M12.701 3.43071L13.8538 7.01823L17.4973 7.04752C17.7011 7.04915 17.7855 7.31901 17.6217 7.44464L14.6906 9.69116L15.7896 13.2968C15.8511 13.4984 15.6299 13.6652 15.4641 13.5422L12.4998 11.3431L9.5355 13.5422C9.36978 13.6652 9.14858 13.4984 9.21001 13.2968L10.3091 9.69116L7.37798 7.44464C7.21407 7.31906 7.29859 7.04915 7.5023 7.04752L11.1459 7.01823L12.2987 3.43071C12.3632 3.23013 12.6365 3.23013 12.701 3.43071Z" fill="#FFE15A"/>
</svg>
