<svg width="25" height="17" viewBox="0 0 25 17" fill="none" xmlns="http://www.w3.org/2000/svg">
<path fill-rule="evenodd" clip-rule="evenodd" d="M24.5688 17H0.431053C0.193017 17 0 16.7997 0 16.5526V0.447388C0 0.200331 0.193017 0 0.431053 0H24.5689C24.8069 0 25 0.200331 25 0.447388V16.5526C24.9999 16.7997 24.8069 17 24.5688 17Z" fill="#41479B"/>
<path fill-rule="evenodd" clip-rule="evenodd" d="M24.9999 0.447388C24.9999 0.200331 24.8069 0 24.5688 0H22.6404L14.6551 5.43003V0H10.3447V5.43003L2.35946 0H0.431053C0.193017 0 0 0.200331 0 0.447388V1.60443L6.851 6.26313H0V10.7368H6.851L0 15.3956V16.5526C0 16.7997 0.193017 17 0.431053 17H2.35951L10.3448 11.57V17H14.6552V11.57L22.6405 17H24.5689C24.807 17 25 16.7997 25 16.5526V15.3956L18.149 10.7369H24.9999V6.26318H18.1489L24.9999 1.60443V0.447388Z" fill="#F5F5F5"/>
<path fill-rule="evenodd" clip-rule="evenodd" d="M24.9999 7.15791H13.7931V0H11.2068V7.15791H0V9.84209H11.2068V17H13.7931V9.84209H24.9999V7.15791Z" fill="#FF4B55"/>
<path fill-rule="evenodd" clip-rule="evenodd" d="M8.73766 10.7368L0.012207 16.6154C0.0427245 16.8314 0.214355 17 0.431004 17H1.0247L10.3211 10.7369H8.73766V10.7368Z" fill="#FF4B55"/>
<path fill-rule="evenodd" clip-rule="evenodd" d="M16.9135 10.7368H15.3301L24.6129 16.9907C24.8293 16.9668 25 16.7835 25 16.5526V16.1847L16.9135 10.7368Z" fill="#FF4B55"/>
<path fill-rule="evenodd" clip-rule="evenodd" d="M0 0.941316L7.89933 6.26325H9.48273L0.251122 0.0437012C0.103662 0.114803 0 0.267598 0 0.447456V0.941316Z" fill="#FF4B55"/>
<path fill-rule="evenodd" clip-rule="evenodd" d="M16.2384 6.26313L24.9848 0.370408C24.9485 0.161512 24.7805 0 24.5688 0H23.9512L14.655 6.26313H16.2384Z" fill="#FF4B55"/>
</svg>
