<svg width="25" height="17" viewBox="0 0 25 17" fill="none" xmlns="http://www.w3.org/2000/svg">
<path fill-rule="evenodd" clip-rule="evenodd" d="M24.5689 17H0.431054C0.193017 17 0 16.7997 0 16.5526V0.447388C0 0.200331 0.193017 0 0.431054 0H24.5689C24.807 0 25 0.200331 25 0.447388V16.5526C25 16.7997 24.8069 17 24.5689 17Z" fill="#FF4B55"/>
<path fill-rule="evenodd" clip-rule="evenodd" d="M4.15059 2.65839L4.56153 3.93721L5.86035 3.94765C6.02852 3.94897 6.09824 4.17175 5.96294 4.27539L4.91812 5.07615L5.30986 6.36146C5.36055 6.52789 5.17803 6.66548 5.04121 6.56402L3.98457 5.78008L2.92794 6.56397C2.79112 6.66548 2.6086 6.52779 2.65928 6.36141L3.05103 5.0761L2.00621 4.27539C1.87091 4.1717 1.94063 3.94897 2.1088 3.94765L3.40762 3.93721L3.81856 2.65839C3.87178 2.49278 4.09742 2.49278 4.15059 2.65839Z" fill="#FFE15A"/>
<path fill-rule="evenodd" clip-rule="evenodd" d="M8.86705 2.97344L9.16173 3.39052L9.63727 3.23615C9.69884 3.21618 9.74947 3.28906 9.71178 3.34334L9.42066 3.763L9.70904 4.1847C9.7464 4.23928 9.69527 4.3118 9.63385 4.29138L9.15929 4.13372L8.86197 4.54872C8.8235 4.60244 8.74122 4.57436 8.74098 4.50747L8.73878 3.9903L8.26661 3.82503C8.20553 3.8036 8.20577 3.7138 8.26705 3.69281L8.7402 3.53085L8.74576 3.01372C8.74645 2.94688 8.82892 2.91946 8.86705 2.97344Z" fill="#FFE15A"/>
<path fill-rule="evenodd" clip-rule="evenodd" d="M7.07311 1.73044L7.56847 1.78629L7.7798 1.31797C7.80719 1.25736 7.89313 1.26775 7.90631 1.33327L8.00817 1.83945L8.5026 1.9033C8.56661 1.91157 8.58366 1.99964 8.52765 2.03294L8.09528 2.28988L8.18956 2.79768C8.20177 2.86346 8.12633 2.90745 8.07853 2.86249L7.70944 2.51509L7.27331 2.76504C7.21686 2.79742 7.15314 2.73651 7.17961 2.67544L7.38385 2.20373L7.01999 1.8504C6.97292 1.80489 7.009 1.72324 7.07311 1.73044Z" fill="#FFE15A"/>
<path fill-rule="evenodd" clip-rule="evenodd" d="M7.85621 6.74224L7.56153 7.15933L7.08599 7.00496C7.02442 6.98499 6.97379 7.05787 7.01148 7.11214L7.3026 7.53181L7.01422 7.95351C6.97686 8.00809 7.02799 8.08061 7.08941 8.06018L7.56397 7.90252L7.86129 8.31753C7.89976 8.37125 7.98204 8.34317 7.98228 8.27628L7.98448 7.7591L8.45665 7.59384C8.51778 7.57241 8.51749 7.4826 8.45621 7.46162L7.98306 7.29965L7.9775 6.78253C7.97672 6.71574 7.89434 6.68822 7.85621 6.74224Z" fill="#FFE15A"/>
<path fill-rule="evenodd" clip-rule="evenodd" d="M9.65006 5.57395L9.1547 5.62979L8.94337 5.16148C8.91598 5.10086 8.83004 5.11125 8.81686 5.17678L8.71495 5.68296L8.22052 5.74681C8.15651 5.75507 8.13946 5.84315 8.19547 5.87645L8.62784 6.13339L8.53356 6.64118C8.52135 6.70696 8.59679 6.75095 8.64459 6.706L9.01368 6.3586L9.44981 6.60855C9.50626 6.64093 9.56998 6.58001 9.54351 6.51895L9.33927 6.04723L9.70313 5.6939C9.75035 5.64839 9.71427 5.56675 9.65006 5.57395Z" fill="#FFE15A"/>
</svg>
