<svg width="25" height="17" viewBox="0 0 25 17" fill="none" xmlns="http://www.w3.org/2000/svg">
<path fill-rule="evenodd" clip-rule="evenodd" d="M0 11.3333H25V16.5525C25 16.7996 24.8069 16.9999 24.5689 16.9999H0.431054C0.193017 16.9999 0 16.7996 0 16.5525V11.3333Z" fill="#41479B"/>
<path fill-rule="evenodd" clip-rule="evenodd" d="M0.431054 0H24.5689C24.807 0 25 0.200332 25 0.44739V5.66667H0V0.44739C0 0.200332 0.193017 0 0.431054 0Z" fill="#FF4B55"/>
<rect y="5.6665" width="25" height="5.66636" fill="#F5F5F5"/>
<rect x="9.48291" y="5.81567" width="1.20688" height="1.43167" fill="#FF4B55"/>
<rect x="11.8965" y="5.81567" width="1.20688" height="1.43167" fill="#FF4B55"/>
<rect x="10.6895" y="7.24731" width="1.20688" height="1.43167" fill="#FF4B55"/>
<rect x="14.3101" y="5.81567" width="1.20688" height="1.43167" fill="#FF4B55"/>
<rect x="13.1035" y="7.24731" width="1.20688" height="1.43167" fill="#FF4B55"/>
<rect x="10.6895" y="5.81567" width="1.20688" height="1.43167" fill="#F5F5F5"/>
<rect x="13.1035" y="5.81567" width="1.20688" height="1.43167" fill="#F5F5F5"/>
<rect x="9.48291" y="7.24731" width="1.20688" height="1.43167" fill="#F5F5F5"/>
<rect x="11.8965" y="7.24731" width="1.20688" height="1.43167" fill="#F5F5F5"/>
<rect x="14.3101" y="7.24731" width="1.20688" height="1.43167" fill="#F5F5F5"/>
<rect x="11.8965" y="8.67896" width="1.20688" height="1.43167" fill="#FF4B55"/>
<rect x="10.6895" y="10.1106" width="1.20688" height="1.43167" fill="#FF4B55"/>
<rect x="13.1035" y="10.1106" width="1.20688" height="1.43167" fill="#FF4B55"/>
<rect x="10.6895" y="8.67896" width="1.20688" height="1.43167" fill="#F5F5F5"/>
<rect x="13.1035" y="8.67896" width="1.20688" height="1.43167" fill="#F5F5F5"/>
<rect x="11.8965" y="10.1106" width="1.20688" height="1.43167" fill="#F5F5F5"/>
<path fill-rule="evenodd" clip-rule="evenodd" d="M15.5171 5.59204H15.7326V5.81574V9.84204C15.7326 11.6922 14.2824 13.1973 12.4998 13.1973C10.7173 13.1973 9.26709 11.6921 9.26709 9.84204V5.81574V5.59204H9.48262H15.5171ZM15.5171 9.842V5.8157H9.48267V9.842C9.48267 11.5715 10.8335 12.9736 12.4999 12.9736C14.1663 12.9736 15.5171 11.5715 15.5171 9.842Z" fill="#FF4B55"/>
<path fill-rule="evenodd" clip-rule="evenodd" d="M10.6895 10.1103V8.67871H9.48267V9.84188C9.48267 9.93255 9.48843 10.0216 9.4957 10.1103H10.6895V10.1103Z" fill="#FF4B55"/>
<path fill-rule="evenodd" clip-rule="evenodd" d="M15.5041 10.1106H14.3103V11.5422H15.0317C15.2935 11.1231 15.4611 10.6357 15.5041 10.1106Z" fill="#F5F5F5"/>
<path fill-rule="evenodd" clip-rule="evenodd" d="M9.96807 11.5421H10.6895V10.1106H9.49561C9.53862 10.6357 9.7063 11.1231 9.96807 11.5421Z" fill="#F5F5F5"/>
<path fill-rule="evenodd" clip-rule="evenodd" d="M14.3103 10.1106H15.5041C15.5114 10.0219 15.5172 9.93279 15.5172 9.84213V8.67896H14.3103V10.1106Z" fill="#FF4B55"/>
<path fill-rule="evenodd" clip-rule="evenodd" d="M10.6896 12.343V11.542H9.96826C10.1616 11.8515 10.4064 12.1218 10.6896 12.343Z" fill="#FF4B55"/>
<path fill-rule="evenodd" clip-rule="evenodd" d="M15.0317 11.542H14.3103V12.343C14.5936 12.1218 14.8384 11.8515 15.0317 11.542Z" fill="#FF4B55"/>
<path fill-rule="evenodd" clip-rule="evenodd" d="M10.6897 12.343C11.041 12.6174 11.4498 12.8166 11.8966 12.9107V11.542H10.6897V12.343H10.6897Z" fill="#F5F5F5"/>
<path fill-rule="evenodd" clip-rule="evenodd" d="M13.1035 12.9107C13.5503 12.8166 13.9591 12.6174 14.3104 12.343V11.542H13.1035V12.9107Z" fill="#F5F5F5"/>
<path fill-rule="evenodd" clip-rule="evenodd" d="M13.1034 11.542H11.8965V12.9107C12.0915 12.9518 12.2933 12.9736 12.4999 12.9736C12.7066 12.9736 12.9084 12.9518 13.1034 12.9107V11.542H13.1034Z" fill="#FF4B55"/>
<path fill-rule="evenodd" clip-rule="evenodd" d="M10.316 3.44709C10.0534 3.40493 9.78476 3.37452 9.51089 3.35693C9.29907 3.53791 9.09717 3.72658 8.90552 3.922C9.098 4.4042 9.29043 4.88641 9.48281 5.36862C9.86919 5.20254 10.2651 5.06961 10.6667 4.96998C10.5499 4.46233 10.433 3.95469 10.316 3.44709Z" fill="#4173CD"/>
<path fill-rule="evenodd" clip-rule="evenodd" d="M13.2326 3.20954C12.9966 3.08563 12.7523 2.97105 12.5001 2.8667C12.2479 2.9711 12.0035 3.08568 11.7676 3.20954C11.8068 3.7298 11.846 4.25017 11.8853 4.77059C12.2945 4.73729 12.7058 4.73729 13.115 4.77059C13.1541 4.25022 13.1934 3.72991 13.2326 3.20954Z" fill="#4173CD"/>
<path fill-rule="evenodd" clip-rule="evenodd" d="M16.0945 3.922C15.9028 3.72663 15.7009 3.53796 15.4891 3.35693C15.2152 3.37447 14.9466 3.40493 14.684 3.44709C14.5671 3.95474 14.4501 4.46233 14.3333 4.96993C14.7349 5.06961 15.1308 5.20249 15.5172 5.36857C15.7096 4.88636 15.902 4.40415 16.0945 3.922Z" fill="#4173CD"/>
<path fill-rule="evenodd" clip-rule="evenodd" d="M11.7674 3.20951C11.5157 3.12523 11.2568 3.05149 10.9913 2.98926C10.757 3.13324 10.5318 3.28613 10.3159 3.44704C10.4328 3.95468 10.5498 4.46228 10.6667 4.96987C11.0684 4.87019 11.4758 4.8038 11.8851 4.77056C11.8458 4.25019 11.8066 3.72987 11.7674 3.20951Z" fill="#41479B"/>
<path fill-rule="evenodd" clip-rule="evenodd" d="M14.6841 3.44704C14.4683 3.28613 14.243 3.13318 14.0087 2.98926C13.7432 3.05149 13.4843 3.12533 13.2327 3.20951C13.1935 3.72977 13.1542 4.25014 13.115 4.77056C13.5243 4.80375 13.9317 4.87019 14.3333 4.96987C14.4503 4.46228 14.5672 3.95463 14.6841 3.44704Z" fill="#41479B"/>
<path fill-rule="evenodd" clip-rule="evenodd" d="M11.8144 3.83391C11.3581 3.8709 10.904 3.94494 10.4562 4.05613C10.4328 3.95462 10.4094 3.85306 10.386 3.75156C10.8491 3.63672 11.3188 3.56009 11.7908 3.52173C11.7987 3.62582 11.8066 3.72987 11.8144 3.83391Z" fill="#FF4B55"/>
<path fill-rule="evenodd" clip-rule="evenodd" d="M11.8615 4.45837C11.4366 4.49288 11.0136 4.56185 10.5965 4.66534C10.5731 4.56383 10.5498 4.46227 10.5264 4.36081C10.9587 4.25348 11.3974 4.18197 11.838 4.14624C11.8458 4.25018 11.8537 4.35433 11.8615 4.45837Z" fill="#FF4B55"/>
<path fill-rule="evenodd" clip-rule="evenodd" d="M13.932 4.56337C13.8268 4.54396 13.7213 4.52668 13.6155 4.51157C13.4416 4.48664 13.312 4.33339 13.3271 4.16113C13.3422 3.98893 13.5084 3.864 13.6977 3.89117C13.8113 3.90739 13.9245 3.92588 14.0375 3.94676C14.2259 3.98133 14.3479 4.15363 14.3112 4.32209C14.2745 4.4909 14.1052 4.59504 13.932 4.56337Z" fill="#FFE15A"/>
<path fill-rule="evenodd" clip-rule="evenodd" d="M15.6326 5.07906C15.2314 4.90661 14.8203 4.76866 14.4033 4.66512C14.4268 4.56361 14.4501 4.46205 14.4735 4.3606C14.9059 4.46783 15.3321 4.61095 15.748 4.78974C15.7096 4.88618 15.6711 4.98262 15.6326 5.07906Z" fill="#FF4B55"/>
<path fill-rule="evenodd" clip-rule="evenodd" d="M15.525 4.13956C15.4824 4.26154 15.3386 4.31957 15.2028 4.27371C15.067 4.22779 14.9839 4.0938 15.0183 3.96903C15.0526 3.84426 15.1982 3.77822 15.3423 3.82682C15.4865 3.87532 15.5676 4.01758 15.525 4.13956Z" fill="#FFE15A"/>
<path fill-rule="evenodd" clip-rule="evenodd" d="M9.98172 3.96918C10.016 4.09405 9.93289 4.2281 9.79719 4.27386C9.6614 4.31947 9.51765 4.26144 9.47498 4.13971C9.4323 4.01768 9.51355 3.87548 9.65769 3.82703C9.80169 3.77853 9.94744 3.84446 9.98172 3.96918Z" fill="#FFE15A"/>
<path fill-rule="evenodd" clip-rule="evenodd" d="M12.4312 3.7641C12.4315 3.86784 12.3417 3.95232 12.2303 3.95586C12.1191 3.95956 12.0242 3.88081 12.0183 3.77748C12.0125 3.67409 12.1023 3.58459 12.2191 3.58069C12.3359 3.57689 12.4307 3.66036 12.4312 3.7641Z" fill="#FFE15A"/>
<path fill-rule="evenodd" clip-rule="evenodd" d="M12.9817 3.77749C12.9758 3.88107 12.8809 3.95957 12.7697 3.95587C12.6584 3.95233 12.5686 3.86785 12.5688 3.76411C12.5693 3.66047 12.6642 3.57675 12.781 3.5807C12.8978 3.58435 12.9875 3.67405 12.9817 3.77749Z" fill="#FFE15A"/>
<path fill-rule="evenodd" clip-rule="evenodd" d="M12.6957 4.24712C12.6929 4.35086 12.6053 4.43245 12.5 4.43245C12.3947 4.4324 12.3071 4.35091 12.3043 4.24712C12.3015 4.14369 12.3891 4.05683 12.5 4.05713C12.6109 4.05688 12.6984 4.14364 12.6957 4.24712Z" fill="#FFE15A"/>
</svg>
