<svg width="18" height="17" viewBox="0 0 18 17" fill="none" xmlns="http://www.w3.org/2000/svg">
<path d="M8.61133 0C13.3057 0 17.1113 3.80558 17.1113 8.5C17.1113 13.1944 13.3057 17 8.61133 17C3.91691 17 0.111328 13.1944 0.111328 8.5C0.111328 3.80558 3.91691 0 8.61133 0Z" fill="#F0F0F0"/>
<path d="M1.8684 13.675C1.20072 12.8063 0.697264 11.8051 0.404114 10.7174H4.82604L1.8684 13.675Z" fill="#0052B4"/>
<path d="M16.8185 10.7174C16.5254 11.805 16.0219 12.8063 15.3542 13.675L12.3967 10.7174H16.8185Z" fill="#0052B4"/>
<path d="M0.404114 6.28256C0.697297 5.19489 1.20076 4.19365 1.8684 3.32499L4.82594 6.28256H0.404114Z" fill="#0052B4"/>
<path d="M13.7863 15.2429C12.9176 15.9105 11.9164 16.414 10.8287 16.7072V12.2853L13.7863 15.2429Z" fill="#0052B4"/>
<path d="M3.43634 1.75716C4.30503 1.08947 5.30627 0.586016 6.39394 0.292832V4.71469L3.43634 1.75716Z" fill="#0052B4"/>
<path d="M6.39391 16.7072C5.30624 16.414 4.305 15.9105 3.43634 15.2429L6.39391 12.2853V16.7072Z" fill="#0052B4"/>
<path d="M10.8288 0.292832C11.9165 0.586016 12.9177 1.08947 13.7864 1.75712L10.8288 4.71469V0.292832Z" fill="#0052B4"/>
<path d="M12.3967 6.28256L15.3542 3.32496C16.0219 4.19362 16.5254 5.19489 16.8185 6.28256H12.3967Z" fill="#0052B4"/>
<path d="M17.0394 9.60869H9.72008H9.72005V16.928C9.3571 16.9753 8.98709 17 8.61133 17C8.2355 17 7.86555 16.9753 7.50264 16.928V9.60875V9.60872H0.183279C0.136031 9.24578 0.111328 8.87576 0.111328 8.5C0.111328 8.12417 0.136031 7.75422 0.183279 7.39131H7.50258H7.50261V0.0719509C7.86555 0.0247021 8.2355 0 8.61133 0C8.98709 0 9.3571 0.0246696 9.72001 0.0719509V7.39125V7.39128H17.0394C17.0866 7.75422 17.1113 8.12417 17.1113 8.5C17.1113 8.87576 17.0866 9.24578 17.0394 9.60869Z" fill="#D80027"/>
<path d="M10.8288 6.28256L14.6218 2.48957C14.7962 2.66395 14.9627 2.84627 15.1214 3.03526L11.8741 6.28259H10.8288V6.28256Z" fill="#D80027"/>
<path d="M6.39392 6.28256H6.39385L2.60089 2.4896C2.77527 2.31515 2.95759 2.14874 3.14658 1.98996L6.39392 5.23736V6.28256Z" fill="#D80027"/>
<path d="M6.39389 10.7173V10.7174L2.6009 14.5104C2.42645 14.3361 2.26003 14.1537 2.10126 13.9647L5.34862 10.7174H6.39389V10.7173Z" fill="#D80027"/>
<path d="M10.8288 10.7173L14.6218 14.5104C14.4474 14.6849 14.2651 14.8513 14.0761 15.01L10.8288 11.7626V10.7173Z" fill="#D80027"/>
</svg>
