<svg width="25" height="17" viewBox="0 0 25 17" fill="none" xmlns="http://www.w3.org/2000/svg">
<path fill-rule="evenodd" clip-rule="evenodd" d="M24.5689 17H0.431054C0.193017 17 0 16.7997 0 16.5526V0.447388C0 0.200331 0.193017 0 0.431054 0H24.5689C24.807 0 25 0.200331 25 0.447388V16.5526C25 16.7997 24.8069 17 24.5689 17Z" fill="#F5F5F5"/>
<path fill-rule="evenodd" clip-rule="evenodd" d="M25 7.15786H13.7931V0H11.2069V7.15786H0V9.84209H11.2069V16.9999H13.7931V9.84209H25V7.15786Z" fill="#FF4B55"/>
<path fill-rule="evenodd" clip-rule="evenodd" d="M7.32758 2.96738C6.90063 3.01192 6.48237 3.05657 6.06352 3.10127C6.10659 2.6665 6.14956 2.23239 6.19257 1.78931C5.80102 1.84186 5.40595 1.84186 5.0144 1.78931C5.05732 2.23239 5.10034 2.66655 5.14345 3.10127C4.72456 3.05662 4.30625 3.01197 3.87939 2.96738C3.93003 3.37371 3.93003 3.7838 3.87939 4.19014C4.30635 4.1456 4.72461 4.10095 5.14345 4.05625C5.10039 4.49102 5.05737 4.92513 5.0144 5.36821C5.40595 5.31566 5.80102 5.31566 6.19257 5.36821C6.14965 4.92513 6.10659 4.49097 6.06352 4.05625C6.48242 4.1009 6.90068 4.14555 7.32758 4.19014C7.277 3.7838 7.277 3.37366 7.32758 2.96738Z" fill="#FF4B55"/>
<path fill-rule="evenodd" clip-rule="evenodd" d="M21.1206 2.96738C20.6936 3.01192 20.2753 3.05657 19.8565 3.10127C19.8996 2.6665 19.9425 2.23239 19.9855 1.78931C19.594 1.84186 19.1989 1.84186 18.8074 1.78931C18.8503 2.23239 18.8933 2.66655 18.9364 3.10127C18.5175 3.05662 18.0992 3.01197 17.6724 2.96738C17.723 3.37371 17.723 3.7838 17.6724 4.19014C18.0993 4.1456 18.5176 4.10095 18.9364 4.05625C18.8934 4.49102 18.8503 4.92513 18.8074 5.36821C19.1989 5.31566 19.594 5.31566 19.9855 5.36821C19.9426 4.92513 19.8996 4.49097 19.8565 4.05625C20.2754 4.1009 20.6936 4.14555 21.1206 4.19014C21.07 3.7838 21.07 3.37366 21.1206 2.96738Z" fill="#FF4B55"/>
<path fill-rule="evenodd" clip-rule="evenodd" d="M7.32758 12.8097C6.90063 12.8542 6.48237 12.8989 6.06352 12.9436C6.10659 12.5088 6.14956 12.0747 6.19257 11.6316C5.80102 11.6841 5.40595 11.6841 5.0144 11.6316C5.05732 12.0747 5.10034 12.5088 5.14345 12.9436C4.72456 12.8989 4.30625 12.8543 3.87939 12.8097C3.93003 13.216 3.93003 13.6261 3.87939 14.0324C4.30635 13.9879 4.72461 13.9432 5.14345 13.8985C5.10039 14.3333 5.05737 14.7674 5.0144 15.2105C5.40595 15.1579 5.80102 15.1579 6.19257 15.2105C6.14965 14.7674 6.10659 14.3333 6.06352 13.8985C6.48242 13.9432 6.90068 13.9878 7.32758 14.0324C7.277 13.6261 7.277 13.216 7.32758 12.8097Z" fill="#FF4B55"/>
<path fill-rule="evenodd" clip-rule="evenodd" d="M21.1206 12.8097C20.6936 12.8542 20.2753 12.8989 19.8565 12.9436C19.8996 12.5088 19.9425 12.0747 19.9855 11.6316C19.594 11.6841 19.1989 11.6841 18.8074 11.6316C18.8503 12.0747 18.8933 12.5088 18.9364 12.9436C18.5175 12.8989 18.0992 12.8543 17.6724 12.8097C17.723 13.216 17.723 13.6261 17.6724 14.0324C18.0993 13.9879 18.5176 13.9432 18.9364 13.8985C18.8934 14.3333 18.8503 14.7674 18.8074 15.2105C19.1989 15.1579 19.594 15.1579 19.9855 15.2105C19.9426 14.7674 19.8996 14.3333 19.8565 13.8985C20.2754 13.9432 20.6936 13.9878 21.1206 14.0324C21.07 13.6261 21.07 13.216 21.1206 12.8097Z" fill="#FF4B55"/>
</svg>
