<svg width="25" height="17" viewBox="0 0 25 17" fill="none" xmlns="http://www.w3.org/2000/svg">
<path fill-rule="evenodd" clip-rule="evenodd" d="M24.5689 17H0.431054C0.193017 17 0 16.7997 0 16.5526V0.447388C0 0.200331 0.193017 0 0.431054 0H24.5689C24.807 0 25 0.200331 25 0.447388V16.5526C25 16.7997 24.8069 17 24.5689 17Z" fill="#41479B"/>
<rect y="3.13159" width="25" height="10.7367" fill="#F5F5F5"/>
<path fill-rule="evenodd" clip-rule="evenodd" d="M15.8595 6.48693L14.7397 8.49993L15.8595 10.5129H13.62L12.5 12.5262L11.3801 10.5129H9.14062L10.2604 8.49993L9.14062 6.48693H11.3801L12.5 4.47363L13.62 6.48693H15.8595ZM14.3734 7.84159L14.7608 7.14527H13.9861L14.3734 7.84159ZM14.0072 8.49991L13.2537 9.85454H11.7462L10.9927 8.49991L11.7462 7.14527H13.2537L14.0072 8.49991ZM12.8875 6.48697L12.5 5.79035L12.1125 6.48697H12.8875ZM10.239 7.14527H11.0137L10.6263 7.84159L10.239 7.14527ZM10.6264 9.15821L10.239 9.85453H11.0137L10.6264 9.15821ZM12.5 11.2095L12.1125 10.5129H12.8875L12.5 11.2095ZM14.7607 9.85453L14.3734 9.15821L13.9861 9.85453H14.7607Z" fill="#41479B"/>
</svg>
