<svg width="25" height="17" viewBox="0 0 25 17" fill="none" xmlns="http://www.w3.org/2000/svg">
<path fill-rule="evenodd" clip-rule="evenodd" d="M25 5.6667H0V0.447388C0 0.200331 0.193017 0 0.431054 0H24.5689C24.807 0 25 0.200331 25 0.447388L25 5.6667Z" fill="#FAB446"/>
<path fill-rule="evenodd" clip-rule="evenodd" d="M24.5689 16.9999H0.431054C0.193017 16.9999 0 16.7996 0 16.5525V11.3333H25V16.5525C25 16.7996 24.8069 16.9999 24.5689 16.9999Z" fill="#73AF00"/>
<rect y="5.6665" width="25" height="5.66635" fill="#F5F5F5"/>
<path fill-rule="evenodd" clip-rule="evenodd" d="M10.1831 8.50004C10.1831 9.82599 11.2224 10.9046 12.4999 10.9046C13.7774 10.9046 14.8167 9.82599 14.8167 8.50004C14.8167 7.1741 13.7774 6.09546 12.4999 6.09546C11.2224 6.09546 10.1831 7.1741 10.1831 8.50004ZM10.6143 8.50004C10.6143 7.4207 11.4601 6.5428 12.5 6.5428C13.54 6.5428 14.3858 7.4207 14.3858 8.50004C14.3858 9.57939 13.54 10.4573 12.5 10.4573C11.4601 10.4573 10.6143 9.57939 10.6143 8.50004Z" fill="#41479B"/>
<ellipse cx="12.5" cy="8.50014" rx="0.262646" ry="0.272599" fill="#41479B"/>
<path fill-rule="evenodd" clip-rule="evenodd" d="M12.4999 8.54089L11.8325 8.61083L10.3987 8.54089V8.4591L11.8325 8.38916L12.4999 8.4591V8.54089Z" fill="#41479B"/>
<path fill-rule="evenodd" clip-rule="evenodd" d="M12.5 8.54089L13.1675 8.61083L14.6013 8.54089V8.4591L13.1675 8.38916L12.5 8.4591V8.54089Z" fill="#41479B"/>
<path fill-rule="evenodd" clip-rule="evenodd" d="M12.4604 8.49998L12.3931 7.80721L12.4604 6.31909H12.5393L12.6066 7.80721L12.5393 8.49998H12.4604Z" fill="#41479B"/>
<path fill-rule="evenodd" clip-rule="evenodd" d="M12.4604 8.5L12.3931 9.19277L12.4604 10.6809H12.5393L12.6066 9.19277L12.5393 8.5H12.4604Z" fill="#41479B"/>
<path fill-rule="evenodd" clip-rule="evenodd" d="M12.4722 8.52887L11.9525 8.08853L10.9863 6.98678L11.042 6.92896L12.1036 7.93178L12.5278 8.4711L12.4722 8.52887Z" fill="#41479B"/>
<path fill-rule="evenodd" clip-rule="evenodd" d="M12.4722 8.52896L12.8964 9.06828L13.958 10.0711L14.0137 10.0133L13.0475 8.91154L12.5278 8.47119L12.4722 8.52896Z" fill="#41479B"/>
<path fill-rule="evenodd" clip-rule="evenodd" d="M12.4722 8.4711L12.8964 7.93178L13.958 6.92896L14.0137 6.98678L13.0475 8.08853L12.5278 8.52887L12.4722 8.4711Z" fill="#41479B"/>
<path fill-rule="evenodd" clip-rule="evenodd" d="M12.4722 8.47119L11.9525 8.91154L10.9863 10.0133L11.042 10.0711L12.1036 9.06828L12.5278 8.52896L12.4722 8.47119Z" fill="#41479B"/>
<path fill-rule="evenodd" clip-rule="evenodd" d="M12.5152 8.53777L11.9243 8.86748L10.5739 9.37234L10.5437 9.29678L11.8426 8.66269L12.485 8.46216L12.5152 8.53777Z" fill="#41479B"/>
<path fill-rule="evenodd" clip-rule="evenodd" d="M12.515 8.53787L13.1575 8.33733L14.4563 7.70325L14.4262 7.62769L13.0758 8.13254L12.4849 8.46226L12.515 8.53787Z" fill="#41479B"/>
<path fill-rule="evenodd" clip-rule="evenodd" d="M12.4635 8.51567L12.1458 7.90236L11.6594 6.5008L11.7322 6.46948L12.3432 7.81758L12.5364 8.48435L12.4635 8.51567Z" fill="#41479B"/>
<path fill-rule="evenodd" clip-rule="evenodd" d="M12.4636 8.51569L12.6568 9.18247L13.2678 10.5306L13.3406 10.4992L12.8541 9.09768L12.5365 8.48438L12.4636 8.51569Z" fill="#41479B"/>
<path fill-rule="evenodd" clip-rule="evenodd" d="M12.485 8.53787L11.8426 8.33733L10.5437 7.70325L10.5739 7.62769L11.9243 8.13254L12.5152 8.46226L12.485 8.53787Z" fill="#41479B"/>
<path fill-rule="evenodd" clip-rule="evenodd" d="M12.4849 8.53777L13.0758 8.86748L14.4262 9.37234L14.4563 9.29678L13.1575 8.66269L12.515 8.46216L12.4849 8.53777Z" fill="#41479B"/>
<path fill-rule="evenodd" clip-rule="evenodd" d="M12.4636 8.48435L12.6568 7.81758L13.2678 6.46948L13.3406 6.5008L12.8541 7.90236L12.5365 8.51567L12.4636 8.48435Z" fill="#41479B"/>
<path fill-rule="evenodd" clip-rule="evenodd" d="M12.4635 8.48438L12.1458 9.09768L11.6594 10.4992L11.7322 10.5306L12.3432 9.18247L12.5364 8.51569L12.4635 8.48438Z" fill="#41479B"/>
<ellipse cx="12.5" cy="8.50005" rx="0.354296" ry="0.367722" fill="#F5F5F5"/>
<ellipse cx="12.5" cy="8.50004" rx="0.212451" ry="0.220501" fill="#41479B"/>
</svg>
