<svg width="25" height="17" viewBox="0 0 25 17" fill="none" xmlns="http://www.w3.org/2000/svg">
<path fill-rule="evenodd" clip-rule="evenodd" d="M24.5689 17H0.431054C0.193017 17 0 16.7997 0 16.5526V0.447388C0 0.200331 0.193017 0 0.431054 0H24.5689C24.807 0 25 0.200331 25 0.447388V16.5526C25 16.7997 24.8069 17 24.5689 17Z" fill="#FF4B55"/>
<path fill-rule="evenodd" clip-rule="evenodd" d="M9.05169 0H0.431054C0.193017 0 0 0.200281 0 0.447338V16.5526C0 16.7996 0.193017 16.9999 0.431054 16.9999H9.05174V0H9.05169Z" fill="#73AF00"/>
<ellipse cx="9.05517" cy="8.50014" rx="3.87597" ry="4.02285" fill="#FFE15A"/>
<path fill-rule="evenodd" clip-rule="evenodd" d="M7.33096 6.26318H10.7792C11.0173 6.26318 11.2103 6.46352 11.2102 6.71057V8.94741C11.2102 10.1827 10.2453 11.1843 9.05507 11.1843C7.86484 11.1843 6.8999 10.1827 6.8999 8.94741V6.71057C6.8999 6.46352 7.09292 6.26318 7.33096 6.26318ZM10.3482 8.94732V7.15787H7.76196V8.94732C7.76196 9.68738 8.34204 10.2894 9.05508 10.2894C9.76811 10.2894 10.3482 9.68738 10.3482 8.94732Z" fill="#FF4B55"/>
<path fill-rule="evenodd" clip-rule="evenodd" d="M10.3482 7.15796V8.94741C10.3482 9.68747 9.76811 10.2895 9.05508 10.2895C8.34204 10.2895 7.76196 9.68747 7.76196 8.94741V7.15796H10.3482" fill="#F5F5F5"/>
<ellipse cx="7.32759" cy="6.71051" rx="0.215527" ry="0.223694" fill="#FFE15A"/>
<ellipse cx="10.7758" cy="6.71051" rx="0.215527" ry="0.223694" fill="#FFE15A"/>
<ellipse cx="7.32759" cy="8.50006" rx="0.215527" ry="0.223694" fill="#FFE15A"/>
<ellipse cx="10.7758" cy="8.50006" rx="0.215527" ry="0.223694" fill="#FFE15A"/>
<ellipse cx="9.05183" cy="6.71051" rx="0.215527" ry="0.223694" fill="#FFE15A"/>
<ellipse cx="10.3457" cy="10.1497" rx="0.215527" ry="0.223694" fill="#FFE15A"/>
<ellipse cx="7.78315" cy="10.1497" rx="0.215527" ry="0.223694" fill="#FFE15A"/>
<path fill-rule="evenodd" clip-rule="evenodd" d="M9.33345 8.38672V8.77198C9.33345 8.93131 9.20854 9.06094 9.05503 9.06094C8.90151 9.06094 8.77661 8.93131 8.77661 8.77198V8.38672H9.33345Z" fill="#41479B"/>
<path fill-rule="evenodd" clip-rule="evenodd" d="M9.33345 7.47339V7.85865C9.33345 8.01798 9.20854 8.14761 9.05503 8.14761C8.90151 8.14761 8.77661 8.01798 8.77661 7.85865V7.47339H9.33345Z" fill="#41479B"/>
<path fill-rule="evenodd" clip-rule="evenodd" d="M9.33345 9.30957V9.69483C9.33345 9.85416 9.20854 9.98379 9.05503 9.98379C8.90151 9.98379 8.77661 9.85416 8.77661 9.69483V9.30957H9.33345Z" fill="#41479B"/>
<path fill-rule="evenodd" clip-rule="evenodd" d="M10.0832 8.38672V8.77198C10.0832 8.93131 9.9583 9.06094 9.80478 9.06094C9.65127 9.06094 9.52637 8.93131 9.52637 8.77198V8.38672H10.0832Z" fill="#41479B"/>
<path fill-rule="evenodd" clip-rule="evenodd" d="M8.58369 8.38672V8.77198C8.58369 8.93131 8.45879 9.06094 8.30527 9.06094C8.15176 9.06094 8.02686 8.93131 8.02686 8.77198V8.38672H8.58369Z" fill="#41479B"/>
</svg>
