<svg width="25" height="17" viewBox="0 0 25 17" fill="none" xmlns="http://www.w3.org/2000/svg">
<path fill-rule="evenodd" clip-rule="evenodd" d="M25 5.6667H0V0.447388C0 0.200331 0.193017 0 0.431054 0H24.5689C24.807 0 25 0.200331 25 0.447388L25 5.6667Z" fill="#F5F5F5"/>
<path fill-rule="evenodd" clip-rule="evenodd" d="M24.5689 16.9999H0.431054C0.193017 16.9999 0 16.7996 0 16.5525V11.3333H25V16.5525C25 16.7996 24.8069 16.9999 24.5689 16.9999Z" fill="#FF4B55"/>
<rect y="5.6665" width="25" height="5.66635" fill="#41479B"/>
<path fill-rule="evenodd" clip-rule="evenodd" d="M6.35854 12.7207C6.23095 12.6447 3.23267 10.8347 3.23267 8.0526V4.25H9.69818V8.0526C9.69818 10.8347 6.6999 12.6447 6.57231 12.7207L6.46542 12.784L6.35854 12.7207Z" fill="#FF4B55"/>
<path fill-rule="evenodd" clip-rule="evenodd" d="M8.15893 7.38168L7.14287 7.52059H6.80424V6.89126H7.00742L7.82021 7.03017L7.71015 6.53976L7.82021 6.04934L7.00742 6.1882H6.80424V5.97566L6.93803 4.92114L6.46557 5.064L5.99311 4.92114L6.1269 5.97566V6.1882H5.92363L5.11089 6.04934L5.22095 6.53976L5.11089 7.03017L5.92363 6.89126H6.1269V7.52059H5.78823L4.77222 7.38168L4.90981 7.87204L4.77222 8.36246L5.78823 8.22355H6.1269V9.84221H6.80424V8.22355H7.14287L8.15893 8.36246L8.02133 7.87204L8.15893 7.38168Z" fill="#F5F5F5"/>
<path fill-rule="evenodd" clip-rule="evenodd" d="M6.46552 9.17114C6.02031 9.17114 5.63847 9.4515 5.47422 9.8512C5.44521 9.84871 5.41748 9.84217 5.38794 9.84217C4.81416 9.84217 4.34956 10.3089 4.31665 10.8958C5.18945 12.011 6.28266 12.6754 6.35864 12.7208L6.46552 12.7842L6.57241 12.7208C6.64838 12.6754 7.74159 12.011 8.6144 10.8958C8.58149 10.3089 8.11689 9.84217 7.54311 9.84217C7.51357 9.84217 7.48583 9.84871 7.45683 9.8512C7.29257 9.4515 6.91074 9.17114 6.46552 9.17114Z" fill="#41479B"/>
<path fill-rule="evenodd" clip-rule="evenodd" d="M9.48256 4.02637H9.91361H9.91366V4.47376V8.05271C9.91366 10.963 6.81132 12.8364 6.67924 12.9148L6.46537 13.0416L6.25151 12.9148C6.11948 12.8364 3.01709 10.9631 3.01709 8.05271V4.47376V4.02637H3.44814H9.48256ZM9.4827 8.0527V4.47374H3.44824V8.0527C3.44824 10.7369 6.46547 12.5264 6.46547 12.5264C6.46547 12.5264 9.4827 10.7369 9.4827 8.0527Z" fill="#F5F5F5"/>
</svg>
