<svg width="25" height="17" viewBox="0 0 25 17" fill="none" xmlns="http://www.w3.org/2000/svg">
<path fill-rule="evenodd" clip-rule="evenodd" d="M0.431054 17H24.5689C24.807 17 25 16.7997 25 16.5526V0.447388C25 0.200331 24.807 0 24.5689 0H0.431054C0.193017 5.06783e-05 0 0.200331 0 0.447388V16.5526C0 16.7997 0.193017 17 0.431054 17Z" fill="#C8414B"/>
<rect y="3.5791" width="25" height="9.84224" fill="#FFD250"/>
<path fill-rule="evenodd" clip-rule="evenodd" d="M10.5603 8.50001L10.9258 6.79312C10.9595 6.63591 10.8442 6.48682 10.689 6.48682H10.4316C10.2765 6.48682 10.1612 6.63591 10.1948 6.79312L10.5603 8.50001Z" fill="#C8414B"/>
<rect x="10.1294" y="7.60498" width="0.862059" height="3.8024" fill="#F5F5F5"/>
<rect x="9.91357" y="7.15796" width="1.29311" height="0.447388" fill="#FAB446"/>
<rect x="9.05176" y="8.5" width="2.15527" height="0.447388" fill="#C8414B"/>
<path fill-rule="evenodd" clip-rule="evenodd" d="M11.2069 10.2895L9.91382 9.84216V9.39478L11.2069 9.84216V10.2895Z" fill="#C8414B"/>
<path fill-rule="evenodd" clip-rule="evenodd" d="M4.09496 8.50001L4.46044 6.79312C4.49413 6.63591 4.37885 6.48682 4.22368 6.48682H3.96625C3.81113 6.48682 3.69589 6.63591 3.72949 6.79312L4.09496 8.50001Z" fill="#C8414B"/>
<path fill-rule="evenodd" clip-rule="evenodd" d="M5.60342 7.15796C5.36538 7.15796 5.17236 7.35829 5.17236 7.60535V10.5132C5.17236 11.0567 5.66113 12.079 7.32753 12.079C8.99394 12.079 9.48271 11.0568 9.48271 10.5132V7.60535C9.48271 7.35829 9.28969 7.15796 9.05165 7.15796H5.60342V7.15796Z" fill="#F5F5F5"/>
<path fill-rule="evenodd" clip-rule="evenodd" d="M7.32753 9.3948H5.17236V7.60535C5.17236 7.35829 5.36538 7.15796 5.60342 7.15796H7.32753V9.3948Z" fill="#C8414B"/>
<path fill-rule="evenodd" clip-rule="evenodd" d="M7.32764 9.39478H9.48281V10.5132C9.48281 11.1309 9.00039 11.6316 8.40522 11.6316C7.81006 11.6316 7.32764 11.1309 7.32764 10.5132V9.39478H7.32764Z" fill="#C8414B"/>
<path fill-rule="evenodd" clip-rule="evenodd" d="M5.17236 9.39478H7.32753V10.5132C7.32753 11.1309 6.84511 11.6316 6.24995 11.6316C5.65478 11.6316 5.17236 11.1309 5.17236 10.5132V9.39478H5.17236Z" fill="#FAB446"/>
<path fill-rule="evenodd" clip-rule="evenodd" d="M6.89651 11.4029V9.39478H6.46545V11.6091C6.62581 11.5753 6.77068 11.5016 6.89651 11.4029Z" fill="#C8414B"/>
<path fill-rule="evenodd" clip-rule="evenodd" d="M6.03433 11.6091V9.39478H5.60327V11.4029C5.72915 11.5016 5.87402 11.5753 6.03433 11.6091Z" fill="#C8414B"/>
<rect x="5.60352" y="8.5" width="1.29311" height="0.447388" fill="#FFB441"/>
<rect x="5.60352" y="7.60498" width="1.29311" height="0.447388" fill="#FAB446"/>
<rect x="5.81885" y="7.87109" width="0.862059" height="0.810448" fill="#FAB446"/>
<rect x="3.66357" y="7.60498" width="0.862059" height="3.8024" fill="#F5F5F5"/>
<rect x="3.44824" y="11.1843" width="1.29311" height="0.447388" fill="#FAB446"/>
<rect x="3.44824" y="7.15796" width="1.29311" height="0.447388" fill="#FAB446"/>
<rect x="3.23291" y="11.6313" width="1.72412" height="0.447388" fill="#5064AA"/>
<rect x="10.1294" y="11.1846" width="1.29311" height="0.447388" fill="#FAB446"/>
<rect x="9.69824" y="11.6313" width="1.72412" height="0.447388" fill="#5064AA"/>
<rect x="6.03467" y="6.71069" width="2.58623" height="0.447388" fill="#FAB446"/>
<rect x="7.1123" y="5.36865" width="0.431054" height="1.34211" fill="#FFB441"/>
<path fill-rule="evenodd" clip-rule="evenodd" d="M6.25 5.36854C6.25 5.73854 6.53999 6.03957 6.89653 6.03957C7.25307 6.03957 7.54311 5.73854 7.54306 5.36854C7.54306 4.99854 7.25307 4.69751 6.89653 4.69751C6.54004 4.69751 6.25 4.99849 6.25 5.36854ZM6.68091 5.3685C6.68091 5.24505 6.77754 5.1448 6.89644 5.1448C7.01538 5.1448 7.11196 5.2451 7.11196 5.3685C7.11196 5.49195 7.01538 5.59219 6.89644 5.59219C6.77749 5.59219 6.68091 5.4919 6.68091 5.3685Z" fill="#F5F5F5"/>
<path fill-rule="evenodd" clip-rule="evenodd" d="M7.11206 5.36854C7.11206 5.73854 7.40205 6.03957 7.75859 6.03957C8.11509 6.03957 8.40512 5.73854 8.40512 5.36854C8.40512 4.99854 8.11513 4.69751 7.75859 4.69751C7.4021 4.69751 7.11206 4.99849 7.11206 5.36854ZM7.54321 5.3685C7.54321 5.24505 7.63984 5.1448 7.75874 5.1448C7.87764 5.1448 7.97422 5.2451 7.97427 5.3685C7.97427 5.49195 7.87764 5.59219 7.75874 5.59219C7.63979 5.59219 7.54321 5.4919 7.54321 5.3685Z" fill="#F5F5F5"/>
<path fill-rule="evenodd" clip-rule="evenodd" d="M7.97412 5.81581C7.97412 6.18581 8.26411 6.48684 8.62065 6.48684C8.97715 6.48684 9.26719 6.18581 9.26719 5.81581C9.26719 5.4458 8.9772 5.14478 8.62065 5.14478C8.26416 5.14478 7.97412 5.44575 7.97412 5.81581ZM8.40503 5.8158C8.40503 5.69234 8.50166 5.5921 8.62056 5.5921C8.73945 5.5921 8.83608 5.69234 8.83608 5.8158C8.83608 5.93925 8.73945 6.03949 8.62056 6.03949C8.50161 6.03949 8.40503 5.9392 8.40503 5.8158Z" fill="#F5F5F5"/>
<path fill-rule="evenodd" clip-rule="evenodd" d="M5.38794 5.81581C5.38794 6.18581 5.67793 6.48684 6.03447 6.48684C6.39101 6.48684 6.68105 6.18581 6.681 5.81581C6.681 5.4458 6.39101 5.14478 6.03447 5.14478C5.67798 5.14478 5.38794 5.44575 5.38794 5.81581ZM5.81885 5.8158C5.81885 5.69234 5.91548 5.5921 6.03437 5.5921C6.15332 5.5921 6.2499 5.69234 6.2499 5.81575C6.2499 5.9392 6.15332 6.03949 6.03437 6.03949C5.91543 6.03949 5.81885 5.9392 5.81885 5.8158Z" fill="#F5F5F5"/>
<path fill-rule="evenodd" clip-rule="evenodd" d="M7.75854 9.84204H9.05161V10.5131C9.05161 10.8831 8.76162 11.1841 8.40508 11.1841C8.04858 11.1841 7.75854 10.8831 7.75854 10.5131V9.84204ZM8.62051 10.5131V10.2894H8.18945V10.5131C8.18945 10.6364 8.28613 10.7367 8.40498 10.7367C8.52383 10.7367 8.62051 10.6364 8.62051 10.5131Z" fill="#FAB446"/>
<path fill-rule="evenodd" clip-rule="evenodd" d="M8.40517 8.94739C8.16714 8.94739 7.97412 8.74706 7.97412 8.5V8.05261C7.97412 7.80556 8.16714 7.60522 8.40517 7.60522C8.64321 7.60522 8.83623 7.80556 8.83623 8.05261V8.5C8.83623 8.74706 8.64321 8.94739 8.40517 8.94739Z" fill="#FFA0D2"/>
<ellipse cx="7.32768" cy="9.39442" rx="0.646532" ry="0.671032" fill="#5064AA"/>
<rect x="7.1123" y="4.47363" width="0.431054" height="1.34211" fill="#FAB446"/>
<path fill-rule="evenodd" clip-rule="evenodd" d="M6.03433 6.71052L5.60327 6.26313L5.85576 6.00108C6.24604 5.596 6.77544 5.36841 7.32744 5.36841C7.87944 5.36841 8.40878 5.596 8.79911 6.00108L9.0516 6.26313L8.62055 6.71052H6.03433Z" fill="#C8414B"/>
<ellipse cx="7.32759" cy="6.28372" rx="0.215527" ry="0.242456" fill="#FFD250"/>
<ellipse cx="6.46528" cy="6.28372" rx="0.215527" ry="0.242456" fill="#FFD250"/>
<ellipse cx="8.18953" cy="6.28372" rx="0.215527" ry="0.242456" fill="#FFD250"/>
<rect x="3.44824" y="8.5" width="2.15527" height="0.447388" fill="#C8414B"/>
<path fill-rule="evenodd" clip-rule="evenodd" d="M3.44824 10.2895L4.74131 9.84216V9.39478L3.44824 9.84216V10.2895Z" fill="#C8414B"/>
</svg>
