<svg width="1100" height="94" viewBox="0 0 1100 94" fill="none" xmlns="http://www.w3.org/2000/svg">
<g clip-path="url(#clip0_1836_11265)">
<rect width="1100" height="94" fill="#F2F4FA"/>
<path d="M506.239 82.7061C505.004 81.4714 505.235 79.0791 507.01 75.7608C507.627 74.6032 508.399 73.4456 509.325 72.2109C505.081 70.8218 499.448 69.8186 492.89 70.6675C492.427 70.7447 492.041 70.436 492.041 69.973C491.964 69.51 492.272 69.1241 492.735 69.1241C499.911 68.2752 505.853 69.3556 510.328 70.899C511.563 69.3556 512.952 67.8122 514.418 66.2688C516.887 63.7993 519.433 61.7157 521.825 60.1723C521.671 55.6193 521.98 51.6064 523.137 49.6772C524.372 47.5935 525.838 47.2849 526.841 47.4392C529.078 47.8251 530.853 50.6032 531.471 53.1498C531.548 53.5357 531.316 53.9987 530.853 54.0759C530.467 54.153 530.004 53.9215 529.927 53.4585C529.387 51.1434 527.921 49.137 526.609 48.9054C525.838 48.8283 525.143 49.2913 524.449 50.3717C523.909 51.2977 523.214 53.6128 523.291 59.1691C525.452 57.9344 527.304 57.2399 528.77 57.2399C529.696 57.2399 530.39 57.4714 530.853 58.0116C531.085 58.2431 531.239 58.5518 531.393 58.8604H531.471C531.471 58.8604 540.807 83.3235 542.042 86.5646L542.196 86.8733C544.588 93.1241 545.437 96.0566 544.202 97.137C544.202 97.137 544.125 97.137 544.125 97.2141C543.816 97.4457 543.353 97.6 542.736 97.6C541.193 97.6 538.415 96.7511 533.785 94.8219C530.853 93.5871 507.859 83.555 507.627 83.4778L507.55 83.4006C507.01 83.2463 506.547 83.0919 506.239 82.7061ZM508.399 76.5325C506.856 79.4649 506.856 81.0855 507.319 81.6257C507.55 81.8572 507.859 81.9344 508.322 81.9344C510.482 81.9344 514.263 79.8508 518.122 76.5325C517.118 75.7608 514.572 74.1402 510.791 72.7511C509.865 74.063 509.016 75.3749 508.399 76.5325ZM515.498 67.3492C514.109 68.7382 512.952 70.0501 511.794 71.4392C515.884 73.0598 518.507 74.8347 519.279 75.5292C520.051 74.8347 520.745 74.1402 521.517 73.4456C521.98 72.9826 522.365 72.5196 522.828 72.0566C522.365 68.8154 522.057 65.3427 521.825 61.9473C519.973 63.2591 517.813 65.0341 515.498 67.3492ZM528.847 58.7833C527.69 58.7833 525.761 59.4778 523.446 60.944C523.523 63.4907 523.831 66.6546 524.294 70.5132C529.233 64.8026 530.93 60.2495 529.85 59.0919C529.619 58.9376 529.31 58.7833 528.847 58.7833ZM534.403 93.3556C541.347 96.2109 542.813 96.1338 543.122 95.9794L543.199 95.9022C543.585 94.899 541.579 89.6514 540.73 87.4135L540.576 87.1048C539.65 84.5582 533.708 69.1241 531.239 62.4874C530.236 65.4971 527.535 69.3556 524.372 72.8283C523.831 73.4456 523.291 73.9858 522.751 74.526C518.43 78.8476 513.955 81.9344 510.637 83.0148C516.501 85.6386 532.011 92.4296 534.403 93.3556ZM506.547 60.7125C507.01 58.5518 507.782 55.3106 504.927 53.6128C502.766 52.3009 501.223 54.4617 500.066 56.0051C499.371 56.9312 498.677 57.9344 498.059 58.0116C497.982 58.0116 497.751 58.0116 497.442 57.78C496.362 56.854 496.979 55.6964 498.059 53.7672C498.908 52.3781 499.757 50.9119 498.985 49.6772C497.982 48.2109 496.439 49.137 495.513 49.7543C494.201 50.6032 493.198 51.0662 492.195 50.2945C491.501 49.7543 491.115 49.137 491.038 48.2109C490.806 46.3588 491.809 44.1209 492.812 42.809C493.044 42.5003 493.044 41.9601 492.658 41.7286C492.349 41.4971 491.809 41.4971 491.578 41.8829C490.343 43.5035 489.186 46.2045 489.494 48.4424C489.649 49.7543 490.266 50.7575 491.269 51.5292C493.198 52.9955 495.127 51.8379 496.362 51.0662C497.519 50.3717 497.674 50.3717 497.751 50.526C497.982 50.9119 497.365 51.9923 496.825 52.9183C495.745 54.6932 494.278 57.0855 496.516 58.9376C497.133 59.4006 497.674 59.6321 498.368 59.555C499.603 59.4006 500.529 58.1659 501.455 56.9312C502.843 55.0019 503.461 54.4617 504.31 54.9247C506.007 55.928 505.776 57.8572 505.158 60.3267C505.004 61.0984 504.85 61.7929 504.85 62.3331C504.85 62.7961 505.235 63.1048 505.621 63.1048C506.007 63.1048 506.393 62.719 506.393 62.3331C506.239 62.0244 506.393 61.4071 506.547 60.7125ZM541.347 56.391C543.739 56.854 546.517 57.3942 547.597 55.3878C547.983 54.6161 547.906 54.0759 547.752 53.69C547.289 52.4553 545.514 51.8379 543.894 51.2977C543.045 50.989 541.502 50.526 541.424 50.1402C541.502 49.2141 543.199 48.2109 544.742 47.362C545.591 46.8218 546.517 46.2817 547.212 45.7415C548.137 44.9698 548.292 44.1209 548.137 43.5035C547.829 41.2656 544.434 39.7222 543.353 39.2591C542.968 39.1048 542.505 39.2591 542.35 39.645C542.196 40.0308 542.35 40.4939 542.736 40.6482C544.897 41.5743 546.44 42.809 546.594 43.6579C546.594 43.735 546.671 44.0437 546.208 44.4296C545.591 44.8926 544.742 45.4328 543.894 45.8958C541.965 47.0534 539.958 48.2109 539.804 49.9858C539.727 51.4521 541.502 52.0694 543.353 52.6868C544.434 53.0726 546.054 53.6128 546.286 54.153C546.286 54.2302 546.363 54.3074 546.208 54.5389C545.668 55.5421 543.662 55.1563 541.656 54.7704C539.495 54.3845 537.258 53.9215 536.1 55.2334C534.634 57.0083 536.255 59.555 537.643 61.5614C538.261 62.4103 538.878 63.4135 538.955 63.9537C539.032 64.3395 539.341 64.6482 539.727 64.6482H539.804C540.267 64.571 540.498 64.1852 540.498 63.7993C540.421 62.9505 539.727 61.9473 538.878 60.7125C537.798 59.1691 536.486 57.1627 537.258 56.3138C537.875 55.6964 539.727 56.0823 541.347 56.391ZM519.896 44.5839C519.896 43.5807 519.125 42.809 518.122 42.809C517.118 42.809 516.347 43.5807 516.347 44.5839C516.347 45.5871 517.118 46.3588 518.122 46.3588C519.125 46.3588 519.896 45.5871 519.896 44.5839ZM515.189 52.2238C514.186 52.2238 513.415 52.9955 513.415 53.9987C513.415 55.0019 514.186 55.7736 515.189 55.7736C516.192 55.7736 516.964 55.0019 516.964 53.9987C516.964 52.9955 516.115 52.2238 515.189 52.2238ZM502.535 43.5807C502.535 42.5775 501.763 41.8058 500.76 41.8058C499.757 41.8058 498.985 42.5775 498.985 43.5807C498.985 44.5839 499.757 45.3556 500.76 45.3556C501.763 45.3556 502.535 44.5067 502.535 43.5807ZM535.56 47.2077C535.56 46.2045 534.788 45.4328 533.785 45.4328C532.782 45.4328 532.011 46.2045 532.011 47.2077C532.011 48.2109 532.782 48.9826 533.785 48.9826C534.788 48.9826 535.56 48.1337 535.56 47.2077ZM541.039 72.2881C541.039 73.2913 541.81 74.063 542.813 74.063C543.816 74.063 544.588 73.2913 544.588 72.2881C544.588 71.2849 543.816 70.5132 542.813 70.5132C541.81 70.5132 541.039 71.2849 541.039 72.2881ZM531.702 78.6161C531.702 79.6193 532.474 80.391 533.477 80.391C534.48 80.391 535.251 79.6193 535.251 78.6161C535.251 77.6129 534.48 76.8411 533.477 76.8411C532.474 76.8411 531.702 77.6129 531.702 78.6161ZM503.847 87.9537C503.847 88.9569 504.618 89.7286 505.621 89.7286C506.624 89.7286 507.396 88.9569 507.396 87.9537C507.396 86.9505 506.624 86.1788 505.621 86.1788C504.618 86.1788 503.847 86.9505 503.847 87.9537ZM556.625 72.1337C557.628 72.1337 558.4 71.362 558.4 70.3588C558.323 69.4328 557.551 68.6611 556.625 68.6611C555.622 68.6611 554.851 69.4328 554.851 70.436C554.851 71.362 555.622 72.1337 556.625 72.1337ZM554.156 84.4038C554.156 85.4071 554.928 86.1788 555.931 86.1788C556.934 86.1788 557.706 85.4071 557.706 84.4038C557.706 83.4006 556.934 82.6289 555.931 82.6289C554.928 82.6289 554.156 83.4778 554.156 84.4038ZM498.291 78.2302C498.291 79.2334 499.063 80.0051 500.066 80.0051C501.069 80.0051 501.84 79.2334 501.84 78.2302C501.84 77.227 501.069 76.4553 500.066 76.4553C499.063 76.4553 498.291 77.227 498.291 78.2302ZM488.8 75.6836C488.8 76.6868 489.572 77.4585 490.575 77.4585C491.578 77.4585 492.349 76.6868 492.349 75.6836C492.349 74.6804 491.578 73.9087 490.575 73.9087C489.572 73.9087 488.8 74.6804 488.8 75.6836ZM492.427 91.4264C492.427 92.4296 493.198 93.2013 494.201 93.2013C495.204 93.2013 495.976 92.4296 495.976 91.4264C495.976 90.4231 495.204 89.6514 494.201 89.6514C493.198 89.6514 492.427 90.5003 492.427 91.4264Z" fill="#8697C9"/>
<path d="M667.199 83.0264C666.473 84.184 665.553 84.8189 664.472 84.9169C661.918 85.1395 658.531 82.6307 657.441 81.64L655.816 82.4214C656.284 82.8516 660.534 86.5775 664.706 86.2167C666.563 86.0572 668.028 85.1413 669.049 83.5057C669.665 82.5226 670.683 81.3376 672.063 81.2381C673.836 81.1121 675.816 82.6935 676.406 83.2857C676.746 83.6765 679.821 87.0969 683.673 86.9963C685.629 86.9472 687.307 86.024 688.667 84.2457C689.46 83.2083 690.721 81.9626 692.179 81.9392C693.87 81.9122 695.502 83.4617 696.049 84.121C696.743 84.7884 700.392 88.1105 703.727 87.6733C705.295 87.4711 706.406 86.5192 707.012 84.8453C707.327 83.986 707.938 82.9155 709.074 82.7237C710.897 82.4167 713.679 84.1764 714.512 84.8172L716.04 83.9516C715.63 83.6375 711.958 80.8935 708.615 81.4491C706.905 81.7349 705.713 82.777 705.065 84.5573C704.838 85.1905 704.314 86.2624 703.367 86.3822C701.845 86.5827 699.132 84.7376 697.758 83.4198C697.523 83.1304 695.366 80.5666 692.171 80.6186C690.187 80.6512 688.408 81.674 686.885 83.6635C685.886 84.9659 684.789 85.6462 683.631 85.6769C681.369 85.7364 678.901 83.485 678.115 82.5802C677.827 82.2838 675.168 79.689 671.895 79.9229C669.977 80.0626 668.399 81.1049 667.199 83.0264Z" fill="#8697C9"/>
<path d="M611.25 83.2929C611.51 82.2325 612.714 81.5794 614.02 81.7909C615.205 82.0677 616.009 83.0461 615.768 84.025C615.508 85.0854 614.304 85.7385 612.998 85.527C611.793 85.3318 610.989 84.3534 611.25 83.2929ZM594.643 83.3166C593.337 83.1051 592.533 82.1267 592.793 81.0662C593.054 80.0058 594.258 79.3527 595.564 79.5642C596.869 79.7757 597.673 80.7541 597.413 81.8146C597.152 82.875 595.848 83.5118 594.643 83.3166Z" fill="#8697C9"/>
<path d="M614.02 81.7909C612.714 81.5794 611.51 82.2325 611.25 83.2929C610.989 84.3534 611.793 85.3318 612.998 85.527C614.304 85.7385 615.508 85.0854 615.768 84.025C616.009 83.0461 615.205 82.0677 614.02 81.7909Z" fill="#8697C9"/>
</g>
<defs>
<clipPath id="clip0_1836_11265">
<rect width="1100" height="94" fill="white"/>
</clipPath>
</defs>
</svg>
