<svg width="253" height="201" viewBox="0 0 253 201" fill="none" xmlns="http://www.w3.org/2000/svg">
<circle cx="100" cy="100" r="95" fill="white" stroke="#C4C9D7" stroke-width="10"/>
<path d="M206.672 83.0205V126.223L207.331 134.717V91.5149L206.672 83.0205Z" fill="#9C7ECC"/>
<path d="M207.331 91.5132V134.716C207.669 134.716 208.033 134.716 208.383 134.716C217.173 134.716 225.006 136.775 230.047 139.979V96.7702C225.006 93.5664 217.173 91.5068 208.383 91.5068C208.033 91.5068 207.669 91.5068 207.331 91.5132Z" fill="url(#paint0_linear_2301_27964)"/>
<path d="M230.047 96.7702V139.973L243.462 134.709V91.5068L230.047 96.7702Z" fill="#9C7ECC"/>
<path d="M208.594 83C207.956 83 207.319 83 206.672 83.0191L207.331 91.5135C207.669 91.5135 208.033 91.5135 208.383 91.5135C217.173 91.5135 225.006 93.573 230.047 96.7769L243.462 91.5135C234.708 85.9572 222.573 83 208.594 83Z" fill="#E5D5FF"/>
<path d="M180.785 117.193V148.536C180.785 141.097 192.57 135.038 207.331 134.763V103.421C192.57 103.691 180.785 109.755 180.785 117.193Z" fill="url(#paint1_linear_2301_27964)"/>
<path d="M163.786 118.034V149.376L180.8 149.053V117.711L163.786 118.034Z" fill="#7FE6FC"/>
<path d="M206.67 94.9248C182.038 95.3896 162.841 105.748 163.785 118.035L180.798 117.716C180.784 117.548 180.784 117.366 180.784 117.198C180.784 109.76 192.568 103.701 207.33 103.426L206.67 94.9248Z" fill="url(#paint2_linear_2301_27964)"/>
<path d="M230.047 118.891V138.786C233.756 141.127 235.944 144.089 235.944 147.301V127.406C235.952 124.195 233.764 121.233 230.047 118.891Z" fill="#7FE6FC"/>
<path d="M253 147.312V127.417C253 139.335 234.126 149.209 210.068 149.669C209.494 149.681 208.923 149.686 208.353 149.685C184.483 149.685 164.695 140.261 163.786 128.249V148.144C164.695 160.158 184.483 169.583 208.353 169.583C208.923 169.583 209.494 169.578 210.068 169.567C234.126 169.106 253 159.238 253 147.312Z" fill="url(#paint3_linear_2301_27964)"/>
<path d="M243.462 113.626L230.048 118.891C233.756 121.234 235.945 124.196 235.945 127.406C235.945 135.014 223.61 141.173 208.372 141.173C193.475 141.173 181.342 135.296 180.789 127.925L163.775 128.243C164.695 140.26 184.483 149.688 208.353 149.688C208.923 149.688 209.494 149.683 210.068 149.672C234.7 149.195 253.897 138.862 252.968 126.562C252.603 121.638 249.543 117.505 243.462 113.626Z" fill="#CBFFEC"/>
<path d="M184.834 165.72L184.816 172.39C184.825 169.082 182.644 165.77 178.276 163.252C169.599 158.248 155.519 158.248 146.897 163.252C142.614 165.738 140.47 168.998 140.461 172.264L140.48 165.594C140.489 162.328 142.633 159.066 146.916 156.581C155.537 151.577 169.618 151.577 178.296 156.581C182.663 159.098 184.844 162.412 184.834 165.72Z" fill="#7679C9"/>
<path d="M184.553 167.377L184.54 171.823C184.531 175.044 182.412 178.261 178.177 180.718C169.652 185.664 155.788 185.664 147.207 180.718C142.887 178.229 140.733 174.961 140.742 171.699L140.755 167.253C140.746 170.515 142.902 173.783 147.22 176.272C155.8 181.218 169.665 181.218 178.189 176.272C182.424 173.813 184.544 170.6 184.553 167.377Z" fill="#CDD4E9"/>
<path d="M184.552 167.372C184.572 160.376 174.783 154.678 162.689 154.644C150.594 154.61 140.774 160.255 140.754 167.251C140.735 174.247 150.523 179.945 162.618 179.979C174.712 180.013 184.533 174.368 184.552 167.372Z" fill="#E5D4FF" fill-opacity="0.5"/>
<path d="M182.146 154.347C192.962 160.583 193.019 170.73 182.273 176.969C171.527 183.208 153.985 183.206 143.169 176.969C132.353 170.732 132.295 160.585 143.041 154.347C153.787 148.109 171.329 148.111 182.146 154.347ZM147.014 174.732C155.692 179.736 169.773 179.736 178.395 174.732C187.017 169.729 186.97 161.584 178.292 156.581C169.614 151.577 155.534 151.577 146.913 156.581C138.292 161.584 138.34 169.729 147.014 174.732Z" fill="url(#paint4_linear_2301_27964)"/>
<path d="M190.295 165.736L190.276 172.406C190.265 176.476 187.593 180.539 182.254 183.637C171.508 189.873 153.965 189.873 143.15 183.637C137.706 180.5 134.988 176.37 135 172.248L135.019 165.578C135.007 169.7 137.726 173.828 143.169 176.967C153.985 183.203 171.527 183.203 182.273 176.967C187.611 173.869 190.283 169.805 190.295 165.736Z" fill="#9CC7E3"/>
<path d="M185.026 182.844C183.643 183.614 182.537 182.936 182.557 181.339C182.576 179.741 183.713 177.816 185.096 177.047C186.479 176.278 187.584 176.955 187.565 178.552C187.546 180.148 186.409 182.074 185.026 182.844ZM187.391 178.649C187.409 177.16 186.382 176.533 185.098 177.249C183.814 177.966 182.754 179.752 182.735 181.242C182.717 182.731 183.744 183.358 185.028 182.642C186.312 181.926 187.373 180.138 187.392 178.649H187.391Z" fill="#CDD4E9"/>
<path d="M187.906 178.096C187.895 177.504 187.847 176.867 187.384 176.165C187.237 175.948 187.056 175.756 186.848 175.597C186.594 175.404 186.303 175.264 185.994 175.186C185.512 175.048 184.844 175.094 184.295 175.309C184.019 175.414 183.306 175.691 182.482 176.545C181.815 177.246 181.298 178.075 180.962 178.981C180.812 179.381 180.705 179.795 180.644 180.218C180.585 180.607 180.577 181.002 180.622 181.393C180.733 182.577 181.575 183.848 183.165 183.843C183.951 183.843 184.644 183.455 184.775 183.378C185.437 182.991 185.876 182.609 186.441 181.921C186.587 181.744 187.87 180.132 187.908 178.096C187.908 178.261 187.793 178.426 187.567 178.554C187.547 180.154 186.41 182.076 185.027 182.846C183.644 183.616 182.539 182.938 182.559 181.341C182.578 179.743 183.715 177.818 185.098 177.049C186.481 176.279 187.586 176.957 187.567 178.554C187.791 178.426 187.904 178.261 187.906 178.096Z" fill="#9C7ECC"/>
<path d="M191.166 186.407C189.783 187.177 188.678 186.498 188.697 184.902C188.716 183.306 189.854 181.38 191.236 180.61C192.618 179.841 193.724 180.514 193.705 182.115C193.686 183.716 192.549 185.637 191.166 186.407ZM193.531 182.212C193.549 180.723 192.522 180.096 191.238 180.812C189.954 181.527 188.893 183.316 188.875 184.805C188.856 186.294 189.884 186.922 191.172 186.205C192.461 185.489 193.516 183.701 193.535 182.212H193.531Z" fill="#CDD4E9"/>
<path d="M194.045 181.659C194.034 181.068 193.985 180.431 193.524 179.727C193.376 179.51 193.195 179.319 192.986 179.16C192.733 178.968 192.445 178.829 192.137 178.751C191.3 178.512 189.936 178.743 188.621 180.109C187.954 180.809 187.437 181.638 187.1 182.544C186.951 182.944 186.844 183.358 186.783 183.78C186.724 184.17 186.717 184.564 186.76 184.956C186.873 186.146 187.718 187.416 189.311 187.406C190.095 187.402 190.786 187.02 190.916 186.943C191.58 186.553 192.017 186.172 192.582 185.486C192.728 185.308 194.01 183.695 194.049 181.661C194.049 181.827 193.934 181.992 193.709 182.119C193.69 183.72 192.552 185.642 191.169 186.411C189.786 187.18 188.681 186.502 188.7 184.906C188.72 183.31 189.858 181.384 191.24 180.614C192.622 179.845 193.728 180.518 193.709 182.119C193.931 181.99 194.044 181.825 194.045 181.659Z" fill="#9C7ECC"/>
<path d="M185.094 177.249C185.726 176.896 186.297 176.869 186.711 177.11L190.038 179.039L190.024 179.047L189.921 179.1L189.91 179.106C189.677 179.232 189.455 179.378 189.246 179.541C189.019 179.714 188.806 179.906 188.611 180.115L188.605 180.122C188.184 180.563 187.823 181.058 187.533 181.595C187.394 181.849 187.271 182.113 187.166 182.384C187.14 182.446 187.12 182.499 187.104 182.542C187.081 182.604 187.031 182.737 186.977 182.918C186.891 183.194 186.828 183.477 186.789 183.764V183.778C186.742 184.087 186.728 184.4 186.747 184.712L183.411 182.781C182.983 182.532 182.722 181.998 182.731 181.241C182.749 179.752 183.808 177.964 185.094 177.249Z" fill="url(#paint5_linear_2301_27964)"/>
<path d="M217.337 194.884L192.851 180.675C192.437 180.435 191.867 180.463 191.235 180.814C189.951 181.531 188.889 183.318 188.871 184.808C188.862 185.565 189.123 186.099 189.551 186.347L214.038 200.557C213.611 200.309 213.349 199.775 213.358 199.017C213.377 197.528 214.435 195.74 215.722 195.025C216.349 194.671 216.922 194.643 217.337 194.884Z" fill="url(#paint6_linear_2301_27964)"/>
<path d="M218.971 197.76C218.979 197.179 218.832 196.606 218.545 196.1C218.258 195.595 217.841 195.175 217.337 194.884C216.922 194.643 216.353 194.671 215.72 195.023C214.436 195.738 213.375 197.526 213.357 199.015C213.347 199.773 213.609 200.307 214.036 200.555C214.29 200.701 214.561 200.814 214.844 200.89C215.131 200.967 215.428 201.004 215.725 201C216.583 200.989 217.402 200.644 218.008 200.039C218.614 199.434 218.96 198.616 218.971 197.76C218.965 198.235 218.642 198.707 218.002 199.063C218.642 198.707 218.965 198.235 218.971 197.76Z" fill="#9C7ECC"/>
<path d="M175.451 159.774C175.597 158.533 172.236 157.119 167.943 156.616C163.65 156.113 160.052 156.712 159.906 157.953C159.761 159.195 163.122 160.609 167.415 161.112C171.708 161.614 175.306 161.016 175.451 159.774Z" fill="white"/>
<g opacity="0.5">
<path opacity="0.5" d="M164.807 175.28C168.588 175.967 168.067 176.304 163.834 176.606C159.6 176.907 152.736 175.706 149.308 173.529C145.88 171.352 146.747 170.225 150.63 171.397C154.513 172.57 161.028 174.592 164.807 175.28Z" fill="white"/>
</g>
<defs>
<linearGradient id="paint0_linear_2301_27964" x1="218.689" y1="91.5068" x2="218.689" y2="139.979" gradientUnits="userSpaceOnUse">
<stop stop-color="#C29CFF"/>
<stop offset="1" stop-color="#FFCBFD"/>
</linearGradient>
<linearGradient id="paint1_linear_2301_27964" x1="207.16" y1="114.617" x2="179.4" y2="118.576" gradientUnits="userSpaceOnUse">
<stop stop-color="#F4D3FF"/>
<stop offset="0.541667" stop-color="#C4DFFF"/>
<stop offset="1" stop-color="#D5F8FF"/>
</linearGradient>
<linearGradient id="paint2_linear_2301_27964" x1="207.048" y1="100.66" x2="168.586" y2="118.24" gradientUnits="userSpaceOnUse">
<stop stop-color="#F8E3FF"/>
<stop offset="0.541667" stop-color="#D6E9FF"/>
<stop offset="1" stop-color="#A9F0FF"/>
</linearGradient>
<linearGradient id="paint3_linear_2301_27964" x1="252.678" y1="141.599" x2="163.816" y2="148.784" gradientUnits="userSpaceOnUse">
<stop stop-color="#80EDF4"/>
<stop offset="1" stop-color="#C4EFD7"/>
</linearGradient>
<linearGradient id="paint4_linear_2301_27964" x1="189.938" y1="157.605" x2="139.767" y2="178.626" gradientUnits="userSpaceOnUse">
<stop stop-color="#F8E3FF"/>
<stop offset="0.541667" stop-color="#D6E9FF"/>
<stop offset="1" stop-color="#A9F0FF"/>
</linearGradient>
<linearGradient id="paint5_linear_2301_27964" x1="189.99" y1="178.878" x2="182.58" y2="180.569" gradientUnits="userSpaceOnUse">
<stop stop-color="#F8E3FF"/>
<stop offset="0.541667" stop-color="#D6E9FF"/>
<stop offset="1" stop-color="#A9F0FF"/>
</linearGradient>
<linearGradient id="paint6_linear_2301_27964" x1="217.153" y1="185.491" x2="190" y2="194.841" gradientUnits="userSpaceOnUse">
<stop stop-color="#F8E3FF"/>
<stop offset="0.541667" stop-color="#D6E9FF"/>
<stop offset="1" stop-color="#A9F0FF"/>
</linearGradient>
</defs>
</svg>
