<svg width="141" height="36" viewBox="0 0 141 36" fill="none" xmlns="http://www.w3.org/2000/svg">
<path fill-rule="evenodd" clip-rule="evenodd" d="M13.4008 1.34732C13.0342 1.55882 12.6636 1.77336 12.3134 1.97605L12.3132 1.97614L12.3131 1.97619C11.4466 2.47775 10.7054 2.90676 10.4612 3.0376C10.3142 3.12468 9.99798 3.30609 9.5941 3.53777L9.59403 3.53781C9.08904 3.82748 8.44708 4.19572 7.8278 4.55639C7.11257 4.97296 5.95352 5.63665 4.80373 6.29503L4.80364 6.29508L4.80333 6.29526C4.16144 6.66282 3.52245 7.02871 2.9652 7.34902L0.123576 8.97805L0.111328 17.9561V26.9219L0.638008 27.2404C0.919721 27.4118 3.16117 28.7102 5.6231 30.1187C8.08502 31.5395 10.7797 33.0951 11.6248 33.585C14.8951 35.4958 15.5688 35.8632 15.7525 35.8632C15.8505 35.8632 17.0508 35.2141 18.4104 34.4302C19.7577 33.6463 21.7787 32.4827 22.8933 31.8458C24.0079 31.2088 25.3062 30.4617 25.7839 30.18C26.035 30.0356 26.537 29.7497 27.14 29.4063L27.143 29.4046L27.1484 29.4015L27.1504 29.4003C27.7216 29.075 28.3821 28.6988 29.0052 28.3427L31.3447 26.9954V23.0392V19.083L27.8906 19.1075L24.4366 19.1442L24.4733 20.8712C24.4856 21.8266 24.4611 22.635 24.3998 22.6717C24.3386 22.7085 23.2118 22.1206 21.8767 21.3734L19.476 20.0016L19.5005 17.9929L19.525 15.9841L21.9134 14.6613C23.224 13.9386 24.3386 13.3752 24.3998 13.412C24.4488 13.4365 24.4856 14.2449 24.4733 15.2002L24.4611 16.9395L27.9029 16.9762L31.3447 17.0007V12.9833V8.96581L30.5853 8.53711C29.7769 8.08392 27.217 6.61412 23.6894 4.56864L22.0059 3.59873C19.4299 2.11452 16.913 0.664403 16.3404 0.342954L15.728 0L13.4008 1.34732ZM16.6834 2.58441C17.1611 2.87837 18.3614 3.57652 19.3413 4.13995C21.6807 5.47502 23.7139 6.65086 27.364 8.76983C28.3071 9.30876 29.1767 9.79869 29.2992 9.83544C29.4829 9.92118 29.5074 10.1661 29.5074 12.5423V15.1635H27.9151H26.3228V13.5344C26.3228 12.1259 26.2983 11.8932 26.1146 11.7829C25.6492 11.5012 18.6921 7.48375 16.8426 6.43039L15.7402 5.81798L15.3116 6.06294C13.756 6.93258 11.784 8.07167 6.14978 11.3542L5.25564 11.8687L5.23115 17.9316C5.20665 21.8756 5.2434 24.0435 5.31689 24.1048C5.42712 24.1905 6.97042 25.0969 9.60382 26.6157C14.6991 29.5553 15.7158 30.1187 15.8505 30.0575C15.9485 30.0208 17.1366 29.3471 18.5084 28.5632C19.8802 27.7671 21.4235 26.8852 21.9502 26.5912C22.3389 26.3743 22.8877 26.0572 23.3455 25.7928C23.508 25.6989 23.6591 25.6117 23.7874 25.5378C24.2774 25.2439 25.0368 24.7907 25.5022 24.5335L26.3228 24.0558V22.5615C26.3228 21.2387 26.3473 21.0549 26.5433 21.006C26.6535 20.9692 27.3762 20.9447 28.1356 20.9202L29.5074 20.8957V23.4189C29.5074 25.8931 29.5074 25.942 29.238 26.1013C28.944 26.285 23.6037 29.3716 18.7656 32.152C17.1978 33.0461 15.8382 33.781 15.7402 33.781C15.6423 33.781 14.3807 33.1073 12.9476 32.2744C12.2256 31.8548 11.0901 31.1989 9.8465 30.4806C8.62181 29.7731 7.29231 29.0052 6.14978 28.3427L1.94858 25.9175V17.9071C1.94858 12.922 1.99758 9.89668 2.07107 9.89668C2.13231 9.89668 2.85496 9.50473 3.68785 9.02705C4.50849 8.53711 5.37813 8.03493 5.6231 7.9002C5.79552 7.80945 6.61344 7.33543 7.62849 6.74718L7.62885 6.74697L7.6298 6.74642C7.98436 6.54094 8.36293 6.32154 8.74643 6.09969L10.215 5.25004L10.2152 5.24991C13.5919 3.29621 15.7325 2.05773 15.7647 2.05773C15.777 2.05773 16.1934 2.29044 16.6834 2.58441ZM15.5443 11.0358V13.8774L13.903 14.8328L12.2617 15.7759L9.88553 14.4163C8.5872 13.6692 7.4726 13.0078 7.41136 12.9588C7.32562 12.873 7.96253 12.4688 11.4411 10.4479C11.7973 10.2484 12.3276 9.94114 12.8608 9.63222L12.8608 9.63218L12.8609 9.63212L12.861 9.6321L12.8613 9.63189C13.2446 9.40983 13.6293 9.18692 13.952 9.00255C14.7236 8.54936 15.3973 8.18191 15.4463 8.18191C15.4953 8.18191 15.5443 9.46799 15.5443 11.0358ZM17.602 9.02705C19.2433 9.98242 20.7376 10.8521 22.8076 12.0401C23.9712 12.7138 24.2161 12.9098 24.0936 13.02C24.0079 13.1058 22.8811 13.7549 21.5827 14.4776L19.2433 15.7759L18.0919 15.1145C17.4673 14.747 16.7201 14.3061 16.4384 14.1346L15.9117 13.8284V10.999C15.9117 9.06379 15.9485 8.18191 16.0465 8.18191C16.1199 8.18191 16.8181 8.56161 17.602 9.02705ZM9.66506 14.649C10.7797 15.286 11.784 15.8739 11.9065 15.9474C12.0902 16.0699 12.1147 16.3026 12.1147 17.9929V19.9036L9.7018 21.2877C8.98473 21.6955 8.32773 22.0716 7.86554 22.3362L7.86547 22.3362L7.86365 22.3373L7.8626 22.3379L7.86232 22.338C7.46584 22.565 7.2135 22.7094 7.19089 22.7207C7.12964 22.7452 7.0929 20.614 7.0929 17.9806V13.1915L7.37461 13.3385C7.52104 13.4239 8.54273 14.0077 9.65249 14.6419L9.65459 14.6431L9.65866 14.6454L9.66214 14.6474L9.66484 14.6489L9.66506 14.649ZM13.903 21.1284L15.5443 22.0716V24.9254C15.5443 26.4932 15.4953 27.7793 15.4463 27.7793C15.3973 27.7793 14.8216 27.4731 14.1847 27.0934C13.56 26.7137 12.2127 25.942 11.1961 25.3664C8.24425 23.6761 7.31337 23.1004 7.39911 23.0147C7.4726 22.9412 12.127 20.2221 12.225 20.1976C12.2461 20.187 12.8073 20.5059 13.5445 20.9248L13.903 21.1284ZM22.0114 21.8021C23.1628 22.4758 24.1181 23.0637 24.1181 23.1127C24.1181 23.1494 23.9099 23.2964 23.6527 23.4434C23.4845 23.5359 22.6062 24.0383 21.4616 24.693L21.4613 24.6932L21.4601 24.6939C20.938 24.9925 20.3606 25.3228 19.77 25.6603C17.8837 26.7504 16.2424 27.6813 16.1199 27.7181C15.924 27.8038 15.9117 27.6201 15.9117 24.9377V22.0716L16.4384 21.8021C16.7201 21.6551 17.455 21.2387 18.0552 20.8712C18.1819 20.7959 18.2918 20.7269 18.3897 20.6653L18.3901 20.6651L18.3904 20.6649L18.3904 20.6648C18.6578 20.4967 18.8364 20.3845 19.0284 20.3521C19.4141 20.287 19.8543 20.544 21.1786 21.3175C21.4241 21.4609 21.6999 21.622 22.0114 21.8021ZM42.3682 13.7673C41.0454 14.1225 39.992 14.9921 39.3551 16.2292C39.0244 16.8783 38.9999 17.0498 38.9999 18.2257C38.9999 19.426 39.0244 19.573 39.3919 20.3201C40.4575 22.4758 42.6744 23.468 44.9159 22.7821C46.0182 22.4269 47.2676 21.4592 47.2676 20.9448C47.2676 20.8713 46.9001 20.5896 46.4469 20.3201L45.6263 19.8302L45.2833 20.2344C44.8302 20.7856 44.2422 21.0428 43.4338 21.0428C42.6377 21.0428 42.1355 20.7488 41.5843 19.9649C41.2659 19.5117 41.2046 19.2913 41.1679 18.5319C41.1434 18.0297 41.1801 17.4418 41.2659 17.1968C41.8293 15.482 43.985 14.9921 45.2221 16.2904L45.6753 16.7681L46.4102 16.2414C46.8144 15.9475 47.1451 15.6413 47.1451 15.5678C47.1451 15.2983 46.3245 14.4899 45.712 14.1592C45.1364 13.8407 43.985 13.559 43.3603 13.5835C43.1889 13.5835 42.7357 13.6693 42.3682 13.7673ZM50.452 22.88V18.2868V13.6937H52.8772C54.9472 13.6937 55.3636 13.7304 55.7801 13.9264C56.7844 14.3796 57.6786 15.6902 57.6786 16.7068C57.6786 17.5519 57.3233 18.4338 56.7354 19.0462L56.1965 19.5974L56.7477 20.467C57.6173 21.8634 58.1562 22.8677 58.0705 22.9045C58.0215 22.929 57.4826 22.929 56.8579 22.9045L55.7311 22.8677L54.8614 21.3979L53.9918 19.9404H53.3304H52.6567V21.4102V22.88H51.5544H50.452ZM55.4126 16.817C55.4126 16.2046 55.3759 16.0821 55.0696 15.8249C54.7634 15.5677 54.6042 15.5309 53.6856 15.5309H52.6567V16.817V18.1031H53.6856C54.6042 18.1031 54.7634 18.0664 55.0696 17.8091C55.3759 17.5519 55.4126 17.4294 55.4126 16.817ZM60.1283 13.7427C60.1283 13.755 60.851 15.1145 61.7206 16.7436L63.3129 19.7077V21.2877V22.88H64.4153H65.5176V21.2877V19.6954L67.1099 16.7558C67.9918 15.139 68.7022 13.7917 68.7022 13.755C68.7022 13.7182 68.1878 13.6937 67.5508 13.6937H66.3995L66.0075 14.5144C65.8167 14.941 65.4405 15.7383 65.1432 16.3683L65.1431 16.3687L65.0644 16.5353C64.746 17.1967 64.4642 17.7357 64.4153 17.7357C64.3418 17.7357 63.7171 16.4618 62.7372 14.3306L62.4433 13.6937H61.2797C60.6428 13.6937 60.1283 13.7182 60.1283 13.7427ZM71.6418 18.3726C71.6418 15.8862 71.6786 13.8162 71.7276 13.7794C71.85 13.6447 76.0635 13.6815 76.5534 13.8162C76.7861 13.8774 77.2148 14.1347 77.4843 14.3674C78.9051 15.58 79.0153 17.7602 77.7415 19.0707C77.0801 19.7444 76.7371 19.8669 75.2306 19.9159L73.8465 19.9649V21.4224V22.88H72.7442H71.6418V18.3726ZM76.4187 17.258C76.5779 16.6333 76.3574 15.9107 75.9287 15.6902C75.7573 15.6045 75.2183 15.531 74.7407 15.531H73.8465V16.817V18.1031H74.8019C75.9287 18.1031 76.235 17.9439 76.4187 17.258ZM81.1955 14.6123V15.5187L82.5796 15.5555L83.9514 15.5922L83.9882 19.23L84.0127 22.88H85.0538H86.0949L86.1194 19.23L86.1561 15.5922L87.5402 15.5555L88.912 15.5187V14.6123V13.6937H85.0538H81.1955V14.6123ZM91.9251 18.3971C92.8315 15.9229 93.6031 13.8652 93.6399 13.8039C93.6766 13.7427 94.1298 13.6937 94.6565 13.6937H95.5996L97.2041 18.0664C98.086 20.4793 98.8454 22.5493 98.8944 22.6595C98.9679 22.8555 98.8822 22.88 97.8778 22.88H96.7632L96.5305 22.2308C96.3957 21.8879 96.2488 21.4592 96.1998 21.2877C96.1508 21.1162 96.0405 20.9447 95.967 20.8835C95.7956 20.761 93.5664 20.7978 93.3214 20.9202C93.2112 20.9815 92.9907 21.4347 92.8315 21.9491L92.5253 22.88H91.4106H90.2838L91.9251 18.3971ZM95.5751 19.181C95.5628 19.0952 95.3791 18.4461 95.1586 17.7357C94.9382 17.0253 94.7177 16.4006 94.6687 16.3516C94.583 16.2536 93.6766 18.789 93.6399 19.181C93.6276 19.3035 93.8726 19.3525 94.6075 19.3525C95.3424 19.3525 95.5873 19.3035 95.5751 19.181ZM101.895 18.2992V22.8923L104.382 22.8555L104.393 22.8554C106.832 22.8188 106.869 22.8182 107.579 22.4636C108.497 22.0104 109.11 21.398 109.563 20.4794C109.857 19.8792 109.918 19.5852 109.955 18.5931C110.028 16.6824 109.428 15.3105 108.142 14.4532C107.211 13.8162 106.513 13.6938 104.076 13.6938H101.895V18.2992ZM106.501 15.8127C107.346 16.2537 107.775 17.0743 107.775 18.2869C107.775 19.2178 107.554 19.8424 107.003 20.4059C106.537 20.8836 106.023 21.0428 104.933 21.0428H104.1V18.2747V15.4943L105.117 15.5555C105.68 15.5923 106.292 15.7025 106.501 15.8127ZM113.409 22.88V18.2868V13.6937H114.45H115.491V18.2868V22.88H114.45H113.409ZM119.19 16.6578C119.251 19.9282 119.337 20.3813 120.023 21.398C120.745 22.4513 121.885 23.0025 123.354 23.0025C124.775 23.0025 125.951 22.4146 126.637 21.3735C127.286 20.3813 127.372 19.8424 127.372 16.5966V13.6937H126.331H125.29V16.2659C125.29 19.23 125.192 19.8547 124.628 20.5161C124.224 20.9693 124.199 20.9815 123.354 20.9815C122.558 20.9815 122.46 20.9448 122.105 20.6141C121.48 20.0139 121.37 19.3892 121.37 16.3639V13.6937H120.255H119.141L119.19 16.6578ZM131.169 22.88V18.2868V13.6937H132.332H133.496L134.635 16.0087C135.248 17.2825 135.799 18.3358 135.848 18.3358C135.909 18.3481 136.472 17.2947 137.109 16.0209L138.273 13.6937H139.437H140.6V18.2868V22.88H139.498H138.395L138.371 20.2711L138.334 17.6744L137.403 19.5117L136.485 21.3489L135.872 21.3857L135.272 21.4224L134.292 19.4872L133.312 17.5519L133.276 20.2098L133.251 22.88H132.21H131.169Z" fill="black"/>
</svg>
