<svg width="111" height="64" viewBox="0 0 111 64" fill="none" xmlns="http://www.w3.org/2000/svg">
<path fill-rule="evenodd" clip-rule="evenodd" d="M105.212 55.3033C111.769 45.4242 106.71 30.5302 93.9133 22.0367C81.1163 13.5431 65.4269 14.6663 58.87 24.5454C52.3131 34.4246 57.3717 49.3185 70.1687 57.8121C82.9657 66.3056 98.6552 65.1824 105.212 55.3033ZM94.3862 45.761C97.4687 41.1167 95.0906 34.1149 89.0745 30.122C83.0585 26.129 75.6827 26.6571 72.6002 31.3014C69.5177 35.9457 71.8958 42.9475 77.9119 46.9405C83.9279 50.9334 91.3037 50.4053 94.3862 45.761Z" fill="#DAFFE9"/>
<path fill-rule="evenodd" clip-rule="evenodd" d="M107.207 53.9693C113.764 44.0902 108.705 29.1962 95.9085 20.7027C83.1114 12.2091 67.422 13.3324 60.8651 23.2115C54.3082 33.0906 59.3668 47.9846 72.1638 56.4781C84.9609 64.9716 100.65 63.8484 107.207 53.9693ZM96.3819 44.4275C99.4644 39.7832 97.0863 32.7813 91.0702 28.7884C85.0542 24.7954 77.6784 25.3235 74.5959 29.9678C71.5134 34.6121 73.8915 41.6139 79.9076 45.6069C85.9236 49.5998 93.2994 49.0717 96.3819 44.4275Z" fill="url(#paint0_linear_16_57)"/>
<circle cx="14.5846" cy="14.5846" r="14.5846" fill="url(#paint1_linear_16_57)"/>
<defs>
<linearGradient id="paint0_linear_16_57" x1="75.5118" y1="15.1699" x2="77.1475" y2="62.4155" gradientUnits="userSpaceOnUse">
<stop stop-color="#80EDF4"/>
<stop offset="1" stop-color="#C4EFD7"/>
</linearGradient>
<linearGradient id="paint1_linear_16_57" x1="29.0643" y1="9.81045" x2="-0.137561" y2="10.9265" gradientUnits="userSpaceOnUse">
<stop stop-color="#80EDF4"/>
<stop offset="1" stop-color="#C4EFD7"/>
</linearGradient>
</defs>
</svg>
