<svg width="14" height="14" viewBox="0 0 14 14" fill="none" xmlns="http://www.w3.org/2000/svg">
<path fill-rule="evenodd" clip-rule="evenodd" d="M0 7C0 10.866 3.13401 14 7 14C8.85652 14 10.637 13.2625 11.9497 11.9497C13.2625 10.637 14 8.85652 14 7C14 3.13401 10.866 0 7 0C3.13401 0 0 3.13401 0 7ZM7 2.625C6.06158 2.6244 5.19421 3.1248 4.725 3.9375C4.55257 4.20874 4.54273 4.55268 4.69936 4.83334C4.856 5.11399 5.15389 5.28619 5.47527 5.28184C5.79665 5.27749 6.08977 5.09729 6.23875 4.8125C6.39567 4.5407 6.68615 4.37375 7 4.375C7.48325 4.375 7.875 4.76675 7.875 5.25C7.875 5.73325 7.48325 6.125 7 6.125C6.51675 6.125 6.125 6.51675 6.125 7V7.875C6.125 8.35825 6.51675 8.75 7 8.75C7.48325 8.75 7.875 8.35825 7.875 7.875V7.7175C9.06935 7.28413 9.78188 6.0576 9.56672 4.8054C9.35157 3.55321 8.2705 2.63486 7 2.625ZM7 11.3799C7.48325 11.3799 7.875 10.9881 7.875 10.5049C7.875 10.0216 7.48325 9.62988 7 9.62988C6.51675 9.62988 6.125 10.0216 6.125 10.5049C6.125 10.9881 6.51675 11.3799 7 11.3799Z" fill="#8697C9"/>
</svg>
